<?xml version="1.0" encoding="UTF-8"?>
<svg id="uuid-7a4a99fc-81d3-4033-9d2c-7898f757e4ec" data-name="Layer 1" xmlns="http://www.w3.org/2000/svg" width="3000" height="3000" viewBox="0 0 3000 3000">
  <path d="M2511.62088,812.99335c-53.72704-70.77874-152.66927-101.68777-296.79642-92.72708-140.56788,8.73228-296.33046,47.00995-467.24375,114.60688-32.35032-11.14205-70.17801-24.20278-113.60129-39.22331-118.6087-40.99809-202.60749-70.3242-252.54001-85.94317-67.27373-22.90996-118.17871-39.77378-152.67441-50.56408,12.17734-6.65142,63.10174-36.42295,157.56648-90.90204,31.10318-16.19001,59.54133-29.80807,105.4292-49.39688,55.05185,42.17899,111.88533,64.36487,177.21182,77.38905,121.56952,24.53398,212.15293-.74691,271.73023-75.81756,27.82943-35.46361,38.46269-70.25111,31.87807-104.41504-6.61317-34.14794-28.34108-62.34569-65.18088-84.5704-19.74014-10.83369-44.12222-19.72129-73.14797-26.64681-63.02236-14.85835-153.46986,6.01186-271.39789,62.56725-20.70233,10.72634-42.57985,19.42892-64.01597,28.54037-10.52933,4.47464-21.03182,9.09774-31.66108,13.33711-12.05285.59616-23.91898-3.71173-30.74799-13.67745-34.60477-50.50697-39.64759-120.55251-10.74575-174.80776,10.53618-19.7784,26.41269-38.30508,47.94816-44.50196,21.53604-6.19916,48.69222,4.5226,54.24155,26.23567-1.10667-30.08217-28.57577-55.35849-58.49005-58.70705-29.91428-3.35084-59.93991,12.39604-78.66817,35.96155-18.72883,23.5655-27.27267,53.91035-29.45117,83.93084-4.61511,63.58826,23.56722,122.4689,58.45179,172.92791l-80.61084,47.04193c-74.91761,36.8181-160.53358,80.98658-257.11971,132.69044-261.60291-73.27988-437.48536-75.45438-527.64049-6.55321-33.02186,25.23978-52.91218,53.88979-59.62013,85.92261-6.72338,32.01455.76861,62.37081,22.54678,91.05737,46.9163,61.80663,116.04989,89.65719,207.3528,83.58822,97.11263-7.71127,245.62362-66.70612,445.47587-176.96171,24.49115,8.13383,491.50364,169.06314,502.61999,172.92334-.00742.00457-348.66988,146.04811-280.13245,520.26385,11.78161,64.32604,44.37005,133.53558,106.78598,152.38433-64.23125-89.7988-85.41211-209.21381-56.00262-315.73254,49.02399-177.56015,202.96953-239.24344,356.25095-305.60236,163.54122,51.93456,303.06468,83.32326,418.53497,94.18664,115.43032,10.84283,205.75504-8.62949,270.93193-58.44209,24.09657-18.41476,38.45184-40.37451,43.10349-65.8587,4.62482-25.48875-2.21733-50.32424-20.57099-74.50418ZM1537.63198,487.13292l176.09202-88.73668c66.73524-29.86289,121.61578-38.36904,164.66559-25.53672,12.95852,4.12059,23.41818,9.93145,31.35044,17.44629,7.90713,7.49884,13.06016,16.24026,15.44423,26.25394,2.35724,9.99769,1.73652,20.28548-1.8433,30.80395-3.5861,10.54817-10.41341,20.90448-20.48305,31.06435-31.76387,29.48372-77.92868,49.41058-138.51044,59.76461-105.89459,19.61394-184.84029,4.30104-236.79084-45.95239l10.07536-5.10734ZM708.81408,782.60511c-77.47985,22.40744-130.69582,14.61166-159.59651-23.46043-28.91097-38.08809-18.78422-75.89294,30.30658-113.41228,74.98556-57.30915,222.23913-56.60564,441.755,2.13339-130.81916,67.39821-234.98637,112.32959-312.46507,134.73932ZM2463.90856,917.3924c-51.78838,39.58192-126.53011,54.94506-224.22348,46.09858-97.72307-8.85334-217.77135-34.59335-360.16369-77.21546,145.4668-57.39138,273.41308-91.85682,383.91193-103.36661,110.43889-11.52122,183.35674,5.99816,218.73126,52.59925,21.7519,28.65686,15.66408,55.95922-18.25601,81.88425Z" fill="{props.fill}"/>
  <g>
    <path d="M138.38462,2257.5612v-24.45633h7.57117c8.92449,0,16.97614-.96097,24.1635-2.91133,7.17882-1.93899,12.90198-5.91365,17.178-11.93533,4.26465-6.016,6.40266-15.03999,6.40266-27.07767v-282.97929c0-12.41865-2.13801-21.545-6.40266-27.36767-4.27602-5.82267-9.99918-9.69497-17.178-11.64533-7.18735-1.93899-15.23901-2.91133-24.1635-2.91133h-7.57117v-24.45633h169.44015v24.45633h-7.56833c-8.54351,0-16.40468.87567-23.5835,2.62134-7.18735,1.74566-13.01002,5.44169-17.468,11.06534-4.46651,5.62934-6.6955,14.26098-6.6955,25.90631v322.57797h114.70766c11.64533,0,21.05315-2.62134,28.2405-7.85832,7.17598-5.24267,12.51816-11.94101,16.01233-20.08934,3.49133-8.15401,5.82267-16.30233,6.98549-24.45633l5.82267-43.67h30.279l-4.077,125.18732H138.38462Z" fill="{props.fill}"/>
    <path d="M646.11654,2263.38387c-41.92433,0-74.92134-13.39099-98.98532-40.17867-24.07536-26.78199-36.10167-67.54065-36.10167-122.27599,0-54.3373,11.54582-94.80597,34.646-121.40031,23.0888-26.58297,57.15197-39.88299,102.18665-39.88299,41.92433,0,74.91281,13.30002,98.98532,39.88299,24.06399,26.59434,36.10167,67.06301,36.10167,121.40031,0,54.73534-11.55435,95.494-34.646,122.27599-23.10018,26.78768-57.16334,40.17867-102.18665,40.17867ZM647.27937,2233.10487c19.40699,0,34.936-4.94699,46.58133-14.84666,11.64533-9.89967,19.98983-24.74633,25.03917-44.54567,5.03797-19.79365,7.56833-44.05097,7.56833-72.78333,0-43.46529-6.02168-76.07563-18.05083-97.81965-12.03484-21.73265-32.6075-32.60466-61.72083-32.60466s-49.59217,10.87201-61.42799,32.60466c-11.84435,21.74402-17.75799,54.35436-17.75799,97.81965,0,43.48235,6.01315,76.377,18.04799,98.69533,12.02915,22.3297,32.6075,33.48033,61.72083,33.48033Z" fill="{props.fill}"/>
    <path d="M979.75133,2263.38387c-25.61916,0-48.4265-5.44169-68.41633-16.30233-19.99551-10.86632-35.71785-28.03864-47.16132-51.53401-11.45484-23.47831-17.178-54.24064-17.178-92.28698,0-41.53199,5.72316-74.23899,17.178-98.10965,11.44347-23.87634,26.97532-40.75866,46.58133-50.65833,19.59464-9.89967,41.63149-14.84666,66.08499-14.84666,16.30517,0,32.21799,2.13801,47.747,6.40266,15.52048,4.27602,28.33148,10.76966,38.43016,19.50366,10.09016,8.734,15.1395,19.90169,15.1395,33.48033,0,8.9387-1.94752,16.11468-5.82267,21.545-3.88652,5.44169-9.60967,9.31968-17.178,11.64533-7.56833,2.33134-17.178,3.49701-28.82333,3.49701,0-12.41865-1.45567-23.67733-4.367-33.77601-2.91133-10.08731-7.85832-18.13897-14.84666-24.16065-6.98834-6.016-17.08702-9.024-30.279-9.024-14.75568,0-27.65766,3.88367-38.72016,11.64533-11.0625,7.76735-19.60601,21.35167-25.61916,40.75866-6.02168,19.41268-9.024,46.58133-9.024,81.51732,0,27.56668,3.00231,50.465,9.024,68.70632,6.01315,18.24701,15.4295,31.83133,28.2405,40.75866,12.80816,8.93302,29.69617,13.39099,50.65549,13.39099,12.02915,0,23.09165-1.74566,33.19033-5.24267,10.09016-3.49133,18.92366-8.34165,26.49199-14.55667,7.57117-6.20364,13.48482-13.19198,17.76084-20.95932,3.10182,2.33134,5.52983,5.33934,7.27833,9.024,1.74566,3.69603,2.61849,8.25067,2.61849,13.68668,0,8.93302-3.69319,17.66702-11.0625,26.202-7.37784,8.54067-18.34083,15.62567-32.89749,21.24932-14.55667,5.62365-32.89749,8.444-55.02533,8.444Z" fill="{props.fill}"/>
    <path d="M1220.80345,2263.38387c-17.08702,0-32.51652-3.40035-46.29133-10.18967-13.78334-6.78932-24.553-17.07565-32.31466-30.85899-7.77019-13.77766-11.64533-31.15468-11.64533-52.114,0-31.05232,10.96299-53.95064,32.89749-68.70632,21.92598-14.75,55.21582-22.89832,99.85815-24.45633l48.32983-1.74566v-34.936c0-13.97667-1.16567-26.29298-3.49417-36.97734-2.3285-10.66731-7.37784-19.11131-15.1395-25.32632-7.77019-6.20364-19.60601-9.31399-35.51883-9.31399-14.75568,0-26.00867,2.718-33.77033,8.14832-7.77019,5.44169-12.91051,12.91335-15.4295,22.42068-2.53036,9.51301-3.78416,20.476-3.78416,32.89465-16.30517,0-28.63285-2.80898-36.9745-8.444-8.35302-5.61796-12.51816-15.03431-12.51816-28.23766,0-13.58433,4.74797-24.45633,14.26383-32.60466,9.50732-8.15401,22.21882-14.06765,38.14017-17.76368,15.90998-3.68466,33.37798-5.52698,52.40399-5.52698,35.70932,0,62.3918,7.56833,80.06166,22.70499,17.65849,15.14234,26.49199,41.15101,26.49199,78.026v150.80364c0,10.87201,1.16567,19.31601,3.49417,25.33201,2.3285,6.02168,6.20364,10.28633,11.64533,12.811,5.43032,2.52467,12.41865,3.78132,20.96217,3.78132h1.74566v24.45633h-78.60599l-9.31683-50.07265h-4.657c-8.15116,10.87201-16.11184,20.476-23.8735,28.81765-7.77019,8.35302-16.79418,14.94901-27.07483,19.79934-10.28917,4.85033-23.5835,7.27833-39.88583,7.27833ZM1234.19444,2227.2822c15.91282,0,29.59666-3.29231,41.0515-9.89967,11.44347-6.59599,20.37933-16.01233,26.78483-28.23766,6.40266-12.22532,9.60683-26.49199,9.60683-42.79432v-47.16701l-37.26449,1.74566c-22.12784.7847-39.50486,4.077-52.114,9.89967-12.61767,5.82267-21.64451,13.88569-27.07483,24.16634-5.44169,10.28633-8.15116,23.00067-8.15116,38.13733,0,12.03768,1.74566,22.03401,5.23983,29.989,3.49417,7.96068,8.734,13.97099,15.71949,18.04799,6.98834,4.077,15.72234,6.11266,26.202,6.11266Z" fill="{props.fill}"/>
    <path d="M1436.8164,2257.5612v-24.45633h7.57117c8.92449,0,16.97614-.96097,24.1635-2.91133,7.17882-1.93899,12.90198-5.91365,17.178-11.93533,4.26465-6.016,6.40266-15.03999,6.40266-27.07767v-312.09263c0-11.64533-2.23752-20.27698-6.6955-25.912-4.46651-5.62365-10.28917-9.31399-17.468-11.05965-7.18735-1.75135-15.04852-2.62134-23.58066-2.62134h-7.57117v-24.45633h110.05066v376.14195c0,12.03768,2.12664,21.06167,6.40266,27.07767,4.26749,6.02168,10.09016,9.99633,17.468,11.93533,7.36931,1.95037,15.32999,2.91133,23.8735,2.91133h7.57117v24.45633h-165.36599Z" fill="{props.fill}"/>
    <path d="M1631.87571,2257.5612v-24.45633h7.57117c8.92449,0,16.97614-.96097,24.1635-2.91133,7.17882-1.93899,12.90198-5.91365,17.178-11.93533,4.26465-6.016,6.40266-15.03999,6.40266-27.07767v-285.31064c0-11.64533-2.23752-20.27698-6.6955-25.90631-4.46651-5.62365-10.28917-9.31968-17.468-11.06534-7.18735-1.74566-15.04852-2.62134-23.58066-2.62134h-7.57117v-24.45633h169.44015v24.45633h-7.56833c-8.54351,0-16.50419.97234-23.8735,2.91133-7.37784,1.95037-13.20051,5.82267-17.468,11.64533-4.27602,5.82267-6.4055,14.94901-6.4055,27.36767v117.61899h189.23665v-117.61899c0-12.41865-2.13801-21.545-6.4055-27.36767-4.27602-5.82267-9.99633-9.69497-17.17516-11.64533-7.18735-1.93899-15.23901-2.91133-24.1635-2.91133h-7.57117v-24.45633h169.44015v24.45633h-7.56833c-8.54351,0-16.50419.97234-23.8735,2.91133-7.37784,1.95037-13.20051,5.82267-17.468,11.64533-4.27602,5.82267-6.4055,14.94901-6.4055,27.36767v285.89063c0,11.26436,2.22899,19.70836,6.6955,25.33201,4.45798,5.62934,10.28064,9.31399,17.468,11.05965,7.17882,1.75135,15.03999,2.62134,23.5835,2.62134h7.56833v24.45633h-169.44015v-24.45633h7.57117c8.92449,0,16.97614-.96097,24.1635-2.91133,7.17882-1.93899,12.89914-5.91365,17.17516-11.93533,4.26749-6.016,6.4055-15.03999,6.4055-27.07767v-136.24697h-189.23665v136.24697c0,12.03768,2.12948,21.06167,6.4055,27.07767,4.26749,6.02168,10.09016,9.99633,17.468,11.93533,7.36931,1.95037,15.32999,2.91133,23.8735,2.91133h7.56833v24.45633h-169.44015Z" fill="{props.fill}"/>
    <path d="M2238.59865,2263.38387c-41.92433,0-74.92134-13.39099-98.98532-40.17867-24.07536-26.78199-36.10167-67.54065-36.10167-122.27599,0-54.3373,11.54582-94.80597,34.646-121.40031,23.0888-26.58297,57.15197-39.88299,102.18665-39.88299,41.92433,0,74.91281,13.30002,98.98532,39.88299,24.06399,26.59434,36.10167,67.06301,36.10167,121.40031,0,54.73534-11.55435,95.494-34.646,122.27599-23.10018,26.78768-57.16334,40.17867-102.18665,40.17867ZM2239.76148,2233.10487c19.40699,0,34.936-4.94699,46.58133-14.84666,11.64533-9.89967,19.98983-24.74633,25.03917-44.54567,5.03797-19.79365,7.56833-44.05097,7.56833-72.78333,0-43.46529-6.02168-76.07563-18.05083-97.81965-12.03484-21.73265-32.6075-32.60466-61.72083-32.60466s-49.59217,10.87201-61.42799,32.60466c-11.84435,21.74402-17.75799,54.35436-17.75799,97.81965,0,43.48235,6.01315,76.377,18.04799,98.69533,12.02915,22.3297,32.6075,33.48033,61.72083,33.48033Z" fill="{props.fill}"/>
    <path d="M2529.72911,2263.38387c-19.41552,0-36.30068-2.33134-50.65833-6.98834-14.36333-4.657-25.52818-11.54298-33.48033-20.66933-7.96068-9.11497-11.93533-20.47031-11.93533-34.06032,0-10.48535,2.12948-18.63367,6.4055-24.45633,4.26749-5.82267,9.21448-9.89967,14.84666-12.23101,5.62365-2.32565,10.7725-3.49133,15.4295-3.49133,0,20.186,4.56033,37.55733,13.68383,52.114,9.11782,14.55667,25.51965,21.835,49.20267,21.835,20.56982,0,36.39166-4.95268,47.45416-14.84666,11.0625-9.89967,16.59517-22.60832,16.59517-38.14301,0-9.69497-2.0385-17.65564-6.11551-23.87066-4.07416-6.20364-11.26151-12.3163-21.54216-18.34367-10.28917-6.01031-24.94819-13.101-43.96283-21.24932-19.7965-8.92733-36.19833-17.55898-49.19982-25.912-13.01002-8.34165-22.70783-18.04799-29.11333-29.11333-6.4055-11.06534-9.60683-24.93966-9.60683-41.63434,0-26.38964,9.98781-46.67231,29.98616-60.84231,19.98698-14.17,46.48182-21.25501,79.47882-21.25501,18.63367,0,34.25365,2.42801,46.87132,7.27833,12.61199,4.85601,22.12784,11.35534,28.53334,19.50366,6.40266,8.15401,9.60683,17.08702,9.60683,26.78768,0,10.47966-3.59368,18.92366-10.7725,25.32632-7.18735,6.40834-17.56751,9.60967-31.15183,9.60967,0-19.40699-4.07416-34.54365-12.22817-45.41566-8.15116-10.86632-20.76884-16.30801-37.84733-16.30801-19.7965,0-33.96934,4.367-42.50432,13.101-8.54351,8.734-12.811,19.90169-12.811,33.48033,0,9.71202,2.42232,17.86035,7.27833,24.45633,4.85033,6.60736,12.61199,12.72002,23.29066,18.34367,10.67299,5.62934,24.54731,11.93533,41.63434,18.92366,20.56982,8.54067,37.26449,17.08702,50.07265,25.61632,12.811,8.54635,22.21882,18.44602,28.2405,29.69901,6.01315,11.26436,9.02684,25.03633,9.02684,41.33865,0,30.279-10.4825,53.08634-31.44467,68.41633-20.95932,15.34136-48.71934,23.00067-83.26299,23.00067Z" fill="{props.fill}"/>
    <path d="M2809.79423,2263.38387c-29.50568,0-50.94833-6.69834-64.33932-20.08934-13.39384-13.39099-20.08934-36.77264-20.08934-70.16199v-194.47932h-44.25283v-23.29066c6.98834,0,14.74715-1.45567,23.29066-4.367,8.53498-2.91133,15.91282-7.65931,22.12784-14.26098,6.59599-6.98834,12.02631-15.52332,16.30233-25.62201,4.26749-10.08731,7.76166-22.50597,10.47966-37.26734h26.78483v71.62334h76.27749v33.18465h-76.27749v196.22498c0,19.79934,4.077,34.356,12.22817,43.67,8.15116,9.31968,18.82416,13.97667,32.02466,13.97667,6.98834,0,13.39099-.38098,19.21366-1.16567,5.82267-.77332,11.83866-1.74566,18.05083-2.91133v25.62201c-5.04934,2.32565-12.61767,4.45798-22.70783,6.40266-10.09869,1.93899-19.7965,2.91133-29.11333,2.91133Z" fill="{props.fill}"/>
  </g>
  <path d="M1580.3545,2404.33561c0-10.09869,2.91133-18.73318,8.734-25.90916,5.82267-7.18735,16.10331-10.7725,30.85899-10.7725,15.14234,0,25.51965,3.58515,31.15468,10.7725,5.61796,7.17598,8.43832,15.81047,8.43832,25.90916,0,10.09016-2.82035,18.72465-8.43832,25.912-5.63502,7.17882-16.01233,10.7725-31.15468,10.7725-14.75568,0-25.03633-3.59368-30.85899-10.7725-5.82267-7.18735-8.734-15.82184-8.734-25.912ZM1340.45952,2404.33561c0-10.09869,2.91133-18.73318,8.734-25.90916,5.82267-7.18735,16.10331-10.7725,30.85899-10.7725,15.14234,0,25.51965,3.58515,31.15468,10.7725,5.62365,7.17598,8.444,15.81047,8.444,25.90916,0,10.09016-2.82035,18.72465-8.444,25.912-5.63502,7.17882-16.01233,10.7725-31.15468,10.7725-14.75568,0-25.03633-3.59368-30.85899-10.7725-5.82267-7.18735-8.734-15.82184-8.734-25.912Z" fill="{props.fill}"/>
  <g>
    <path d="M947.94094,2856.67977c-27.39362,0-50.50097-6.36354-69.31394-19.09062-18.81905-12.72708-32.99515-30.50851-42.54249-53.33619-9.54531-22.82768-14.31796-49.59913-14.31796-80.3103,0-29.88431,5.04422-56.23828,15.14887-79.06596,10.09655-22.82768,25.0387-40.67801,44.82444-53.5429,19.77966-12.86489,44.20228-19.30138,73.25568-19.30138,18.815,0,34.45026,2.01039,46.90171,6.01902,12.45146,4.01673,21.71912,9.54531,27.80704,16.60195,6.08387,7.05664,9.13188,15.01309,9.13188,23.8653,0,8.86032-3.46347,15.91695-10.37622,21.16991-6.91883,5.25701-15.49947,7.88349-25.73383,7.88349,0-8.57254-1.52401-16.94647-4.56391-25.10963-3.04801-8.15911-8.09426-14.94013-15.1509-20.33901-7.05461-5.39482-16.67288-8.09021-28.84467-8.09021-20.75243,0-37.49827,5.0503-50.22129,15.14684-12.73113,10.10465-21.93192,24.83807-27.60033,44.2043-5.67449,19.37029-8.50971,42.89106-8.50971,70.55827,0,24.63135,2.971,46.42141,8.92517,65.37016,5.94606,18.95686,15.28465,33.69028,28.01578,44.20025,12.72302,10.52213,29.18919,15.77509,49.39039,15.77509,13.55393,0,25.0387-1.66182,34.44823-4.98139,9.40345-3.31958,17.36192-7.68083,23.8653-13.07565,6.49932-5.39482,12.10086-11.13417,16.81069-17.22209,2.21103,1.3862,4.07753,3.38848,5.60154,6.01496,1.51793,2.63459,2.28398,6.01902,2.28398,10.1695,0,5.26107-1.80368,10.58293-5.39685,15.98181-3.59925,5.39482-8.99407,10.37622-16.18649,14.94013-7.1985,4.56391-16.39321,8.30097-27.60033,11.20712-11.20712,2.90615-24.5584,4.3572-40.05179,4.3572Z" fill="{props.fill}"/>
    <path d="M1186.51214,2856.67977c-29.88431,0-53.40509-9.54531-70.55827-28.63998-17.16129-19.09062-25.73383-48.14402-25.73383-87.16022,0-38.73247,8.23004-67.57916,24.69621-86.53602,16.45806-18.94875,40.73881-28.42921,72.84023-28.42921,29.88431,0,53.39901,9.48046,70.55827,28.42921,17.15318,18.95686,25.73383,47.80355,25.73383,86.53602,0,39.0162-8.23612,68.0696-24.69621,87.16022-16.46616,19.09467-40.74692,28.63998-72.84023,28.63998ZM1187.34103,2835.09643c13.8336,0,24.90292-3.52629,33.20389-10.58293,8.30097-7.05664,14.24906-17.63957,17.84831-31.75284,3.59114-14.10922,5.39482-31.40021,5.39482-51.88108,0-30.98273-4.29235-54.22789-12.86691-69.72736-8.57862-15.49137-23.24313-23.2411-43.99556-23.2411s-35.35007,7.74974-43.78682,23.2411c-8.44284,15.49947-12.65817,38.74463-12.65817,69.72736,0,30.99489,4.28627,54.44271,12.86489,70.35156,8.57456,15.91695,23.24313,23.8653,43.99556,23.8653Z" fill="{props.fill}"/>
    <path d="M1335.43243,2852.52929v-17.43285h5.39482c6.36151,0,12.10086-.68499,17.22411-2.07524,5.11718-1.38214,9.19673-4.21534,12.24475-8.50769,3.04193-4.2883,4.56594-10.72074,4.56594-19.30138v-155.64325h-37.76983v-19.50404h37.76983v-20.75243c0-24.6273,6.56823-43.51121,19.71481-56.65576,13.13848-13.14051,31.05569-19.71481,53.74759-19.71481,14.38484,0,25.79868,1.24434,34.24151,3.73706,8.43676,2.48867,14.5267,5.88121,18.26174,10.16545,3.73706,4.2964,5.60356,9.33859,5.60356,15.1509,0,4.98139-1.45308,9.20079-4.3572,12.65817-2.90615,3.46549-6.92086,6.09197-12.03601,7.88755-5.12326,1.80368-11.00041,2.69538-17.63957,2.69538,0-5.52858-.83091-10.8545-2.4907-15.97775-1.65979-5.11515-4.43016-9.26564-8.30097-12.45146-3.87892-3.17772-9.40953-4.77468-16.60195-4.77468-11.90022,0-20.06541,4.56797-24.48747,13.69985-4.43016,9.12783-6.64118,22.4102-6.64118,39.84305v24.48949h58.52227v19.50404h-58.52227v155.64325c0,8.58064,1.51793,15.01309,4.56594,19.30138,3.03991,4.29235,7.19039,7.12554,12.45146,8.50769,5.25296,1.39025,10.92745,2.07524,17.01537,2.07524h15.77307v17.43285h-128.24963Z" fill="{props.fill}"/>
    <path d="M1557.81511,2852.52929v-17.43285h5.39482c6.36151,0,12.10086-.68499,17.22411-2.07524,5.11718-1.38214,9.19673-4.21534,12.24475-8.50769,3.04193-4.2883,4.56594-10.72074,4.56594-19.30138v-155.64325h-37.76983v-19.50404h37.76983v-20.75243c0-24.6273,6.56823-43.51121,19.71481-56.65576,13.13848-13.14051,31.05569-19.71481,53.74759-19.71481,14.38484,0,25.79868,1.24434,34.24151,3.73706,8.43676,2.48867,14.5267,5.88121,18.26174,10.16545,3.73706,4.2964,5.60356,9.33859,5.60356,15.1509,0,4.98139-1.45308,9.20079-4.3572,12.65817-2.90615,3.46549-6.92086,6.09197-12.03601,7.88755-5.12326,1.80368-11.00041,2.69538-17.63957,2.69538,0-5.52858-.83091-10.8545-2.4907-15.97775-1.65979-5.11515-4.43016-9.26564-8.30097-12.45146-3.87892-3.17772-9.40953-4.77468-16.60195-4.77468-11.90022,0-20.06541,4.56797-24.48747,13.69985-4.43016,9.12783-6.64118,22.4102-6.64118,39.84305v24.48949h58.52227v19.50404h-58.52227v155.64325c0,8.58064,1.51793,15.01309,4.56594,19.30138,3.03991,4.29235,7.19039,7.12554,12.45146,8.50769,5.25296,1.39025,10.92745,2.07524,17.01537,2.07524h15.77307v17.43285h-128.24963Z" fill="{props.fill}"/>
    <path d="M1876.48989,2856.67977c-30.16399,0-53.74961-9.96279-70.76701-29.88431-17.0174-19.92153-25.52509-47.86435-25.52509-83.84064,0-38.73247,8.0213-67.92369,24.07201-87.57365,16.04463-19.64185,38.73652-29.46683,68.0696-29.46683,26.83427,0,47.93731,8.30097,63.29492,24.90292,15.35558,16.60195,23.03439,41.36706,23.03439,74.29128v19.09467h-138.21039c.55124,30.15993,6.01699,52.0878,16.39321,65.78359,10.37622,13.6958,25.52509,20.54572,45.44864,20.54572,14.38281,0,26.62756-2.971,36.73221-8.92517,10.09655-5.94606,17.63957-12.65817,22.61894-20.12824,1.93338.83091,3.73503,2.48867,5.39685,4.98139,1.65979,2.48867,2.48867,5.53668,2.48867,9.12783,0,5.54074-2.63256,11.4868-7.88552,17.85034-5.25904,6.36759-13.28034,11.82727-24.07201,16.39118-10.79167,4.56797-24.48747,6.84992-41.08941,6.84992ZM1916.7484,2721.78896c0-22.13458-3.39051-39.9079-10.16748-53.33213-6.78507-13.42018-18.47048-20.13229-35.07242-20.13229-15.2198,0-27.04909,6.29869-35.48585,18.8839-8.44486,12.59738-13.3533,30.78818-14.73544,54.58052h95.46119Z" fill="{props.fill}"/>
    <path d="M2106.34467,2856.67977c-30.16399,0-53.74961-9.96279-70.76701-29.88431-17.0174-19.92153-25.52509-47.86435-25.52509-83.84064,0-38.73247,8.0213-67.92369,24.07201-87.57365,16.04463-19.64185,38.73652-29.46683,68.0696-29.46683,26.83427,0,47.93731,8.30097,63.29492,24.90292,15.35558,16.60195,23.03439,41.36706,23.03439,74.29128v19.09467h-138.21039c.55124,30.15993,6.01699,52.0878,16.39321,65.78359,10.37622,13.6958,25.52509,20.54572,45.44864,20.54572,14.38281,0,26.62756-2.971,36.73221-8.92517,10.09655-5.94606,17.63957-12.65817,22.61894-20.12824,1.93338.83091,3.73503,2.48867,5.39685,4.98139,1.65979,2.48867,2.48867,5.53668,2.48867,9.12783,0,5.54074-2.63256,11.4868-7.88552,17.85034-5.25904,6.36759-13.28034,11.82727-24.07201,16.39118-10.79167,4.56797-24.48747,6.84992-41.08941,6.84992ZM2146.60317,2721.78896c0-22.13458-3.39051-39.9079-10.16748-53.33213-6.78507-13.42018-18.47048-20.13229-35.07242-20.13229-15.2198,0-27.04909,6.29869-35.48585,18.8839-8.44486,12.59738-13.3533,30.78818-14.73544,54.58052h95.46119Z" fill="{props.fill}"/>
  </g>
  <line x1="1267.38478" y1="2404.33703" x2="144.2087" y2="2404.33703" fill="{props.fill}" stroke="{props.stroke}" style="stroke-linecap: round; stroke-miterlimit: 10; stroke-width: 17.468px;"/>
  <line x1="2859.38545" y1="2404.33703" x2="1736.20937" y2="2404.33703" fill="{props.fill}"  stroke="{props.stroke}" style="stroke-linecap: round; stroke-miterlimit: 10; stroke-width: 17.468px;"/>
</svg>