<?xml version="1.0" encoding="UTF-8"?>
<svg id="uuid-7abd3856-b3ce-4347-aaf6-1489e361c211" data-name="Layer 1" xmlns="http://www.w3.org/2000/svg" width="3000" height="1200" viewBox="0 0 3000 1200">
  <path d="M1375.25937,581.85847c-34.63714-45.63015-98.42393-65.5568-191.34085-59.77996-90.62231,5.62959-191.04045,30.30671-301.22606,73.88559-20.85584-7.18314-45.24287-15.60322-73.2373-25.28676-76.46551-26.43094-130.61846-45.33711-162.80931-55.40646-43.37051-14.76976-76.1883-25.64165-98.42724-32.59801,7.85057-4.28809,40.68088-23.48141,101.58109-58.60338,20.05182-10.43749,38.38553-19.21688,67.96885-31.84554,35.49122,27.19225,72.13104,41.49521,114.24619,49.89173,78.37431,15.81674,136.77228-.48153,175.181-48.87861,17.94128-22.86293,24.7964-45.28999,20.55139-67.31504-4.26342-22.01474-18.27113-40.19347-42.02128-54.52145-12.72621-6.98434-28.44503-12.71406-47.15756-17.17886-40.62971-9.57899-98.94006,3.87577-174.96675,40.3363-13.34653,6.91513-27.45069,12.52558-41.27027,18.39961-6.78812,2.88474-13.55894,5.8652-20.41149,8.59827-7.77032.38434-15.42026-2.39291-19.82284-8.81768-22.30925-32.5612-25.56029-77.71866-6.92765-112.69632,6.79254-12.75088,17.02792-24.69479,30.91157-28.68984,13.88401-3.99652,31.39125,2.91566,34.96883,16.9138-.71345-19.39359-18.42243-35.68891-37.70779-37.84768-19.28535-2.16024-38.64249,7.99157-50.71636,23.18395-12.07424,15.19238-17.58234,34.75531-18.98679,54.10914-2.9753,40.99454,15.19348,78.95413,37.68312,111.48441l-51.96877,30.32733c-48.29842,23.73616-103.49394,52.21101-165.76179,85.54383-168.65205-47.2426-282.04121-48.64448-340.16307-4.22477-21.28877,16.27176-34.1118,34.74206-38.43634,55.39321-4.33447,20.63937.49552,40.20966,14.53562,58.70352,30.24634,39.84594,74.81588,57.80084,133.6777,53.88825,62.60727-4.97136,158.3504-43.00458,287.19259-114.08495,15.78913,5.24378,316.8661,108.99284,324.03267,111.48146-.00479.00295-224.78301,94.15535-180.59781,335.40744,7.59545,41.47017,28.6048,86.08868,68.84355,98.24022-41.40906-57.89214-55.06409-134.87746-36.10417-203.54872,31.60514-114.47076,130.85186-154.23718,229.67043-197.01793,105.43293,33.48155,195.38192,53.71744,269.82414,60.72092,74.41645,6.99023,132.64764-5.56332,174.66634-37.67686,15.53475-11.87176,24.78941-26.02893,27.78827-42.45826,2.98156-16.43227-1.42949-32.44339-13.26186-48.03189ZM747.34119,371.78042l113.52427-57.2074c43.02335-19.25222,78.40413-24.73603,106.1578-16.4632,8.35419,2.65649,15.0974,6.40268,20.21122,11.2474,5.09763,4.83441,8.41972,10.46989,9.9567,16.92558,1.51968,6.44539,1.11951,13.07779-1.18835,19.85891-2.31192,6.80027-6.71339,13.47685-13.20516,20.02679-20.47776,19.00778-50.23962,31.85437-89.29591,38.52948-68.26889,12.64485-119.16417,2.77283-152.65602-29.62492l6.49545-3.29264ZM213.0129,562.26756c-49.95027,14.44579-84.25792,9.41995-102.88982-15.12464-18.63853-24.5549-12.10995-48.92721,19.53827-73.11544,48.34223-36.94648,143.27472-36.49293,284.79379,1.37537-84.33744,43.45076-151.4927,72.41745-201.44223,86.86471ZM1344.49984,649.1632c-33.3873,25.51795-81.57234,35.42238-144.55401,29.71916-63.00081-5.70763-140.3944-22.30189-232.19292-49.77982,93.78058-36.99949,176.26591-59.21891,247.5031-66.63913,71.19854-7.42758,118.20774,3.86694,141.01324,33.91006,14.02317,18.47471,10.09843,36.07619-11.76942,52.78973Z" style="fill: #fff;"/>
  <g>
    <path d="M1542.8349,523.63613v-12.42659h3.84701c4.53465,0,8.62581-.48828,12.2778-1.47929,3.64766-.98523,6.55567-3.0048,8.72837-6.0645,2.16692-3.05681,3.25328-7.64202,3.25328-13.75853v-143.78558c0-6.31009-1.08635-10.9473-3.25328-13.90588-2.1727-2.95857-5.08072-4.92614-8.72837-5.91715-3.65199-.98523-7.74315-1.47929-12.2778-1.47929h-3.84701v-12.42659h86.09482v12.42659h-3.84557c-4.34107,0-8.33544.44494-11.98309,1.33194-3.65199.88699-6.61057,2.765-8.87572,5.62245-2.26949,2.86034-3.40207,7.2462-3.40207,13.16335v163.9062h58.2845c5.91715,0,10.69739-1.33194,14.34938-3.99292,3.64621-2.66387,6.36065-6.06739,8.13608-10.20766,1.77399-4.14316,2.95857-8.28343,3.54942-12.42659l2.95857-22.18931h15.38517l-2.07158,63.60936h-158.5799Z" style="fill: #fff;"/>
    <path d="M1800.82032,526.59471c-21.30232,0-38.06854-6.80414-50.29577-20.41532-12.23301-13.60829-18.34374-34.31831-18.34374-62.13007,0-27.60951,5.86659-48.17219,17.6041-61.68513,11.73173-13.50717,29.03968-20.26508,51.92241-20.26508,21.30232,0,38.0642,6.75792,50.29577,20.26508,12.22724,13.51294,18.34374,34.07562,18.34374,61.68513,0,27.81176-5.87092,48.52178-17.6041,62.13007-11.73751,13.61118-29.04546,20.41532-51.92241,20.41532ZM1801.41116,511.20954c9.86095,0,17.75145-2.51363,23.6686-7.54379,5.91715-5.03016,10.1571-12.57394,12.72274-22.63425,2.55986-10.05742,3.84557-22.38289,3.84557-36.98219,0-22.0853-3.0597-38.65505-9.17187-49.70348-6.11506-11.04265-16.56831-16.56686-31.36118-16.56686s-25.19845,5.52421-31.21239,16.56686c-6.01827,11.04843-9.02308,27.61818-9.02308,49.70348,0,22.09397,3.05536,38.80818,9.17043,50.14842,6.11217,11.34602,16.56831,17.01181,31.36118,17.01181Z" style="fill: #fff;"/>
    <path d="M1970.34463,526.59471c-13.01744,0-24.60615-2.765-34.76325-8.28343-10.15999-5.52132-18.14872-14.24681-23.9633-26.18512-5.82036-11.92964-8.72837-27.5604-8.72837-46.89226,0-21.10296,2.90801-37.72183,8.72837-49.85083,5.81458-12.13189,13.70652-20.71002,23.6686-25.74018,9.9563-5.03016,21.15352-7.54379,33.57867-7.54379,8.28488,0,16.3704,1.08635,24.26089,3.25328,7.88616,2.1727,14.3956,5.47221,19.52688,9.91007,5.12694,4.43786,7.69258,10.11232,7.69258,17.01181,0,4.54187-.98956,8.18809-2.95857,10.9473-1.97479,2.765-4.8828,4.73545-8.72837,5.91715-3.84557,1.18459-8.72837,1.77688-14.64552,1.77688,0-6.31009-.73964-12.03077-2.21893-17.16205-1.47929-5.1255-3.99292-9.21665-7.54379-12.27635-3.55087-3.05681-8.68215-4.58521-15.38517-4.58521-7.49756,0-14.05323,1.97335-19.67423,5.91715-5.621,3.94669-9.96208,10.84907-13.01744,20.71002-3.0597,9.86384-4.58521,23.6686-4.58521,41.42005,0,14.007,1.52552,25.64194,4.58521,34.91061,3.05536,9.27155,7.83993,16.17393,14.34938,20.71002,6.508,4.53899,15.08902,6.80414,25.73873,6.80414,6.11217,0,11.73318-.88699,16.86445-2.66387,5.12694-1.77399,9.61537-4.23851,13.46094-7.39644,3.84701-3.15215,6.85182-6.70302,9.02452-10.64971,1.57608,1.18459,2.80978,2.71299,3.69822,4.58521.88699,1.878,1.33049,4.19228,1.33049,6.95438,0,4.53899-1.87656,8.97685-5.621,13.31359-3.74878,4.33963-9.31922,7.93961-16.71566,10.79706s-16.71566,4.29051-27.95911,4.29051Z" style="fill: #fff;"/>
    <path d="M2092.82645,526.59471c-8.68215,0-16.52208-1.72776-23.52125-5.17751-7.0035-3.44974-12.47571-8.67637-16.41951-15.67987-3.94814-7.00061-5.91715-15.83011-5.91715-26.47982,0-15.7781,5.57044-27.41304,16.71566-34.91061,11.14088-7.49467,28.0559-11.63494,50.73927-12.42659l24.55704-.88699v-17.75145c0-7.10174-.59229-13.35981-1.77543-18.78868-1.18314-5.4202-3.74878-9.71071-7.69258-12.86864-3.94814-3.15215-9.96208-4.73256-18.0476-4.73256-7.49756,0-13.21535,1.38105-17.15916,4.14027-3.94814,2.765-6.56,6.56145-7.83993,11.39225-1.28571,4.83369-1.92278,10.40413-1.92278,16.71421-8.28488,0-14.54873-1.42728-18.78724-4.29051-4.24428-2.85456-6.36065-7.63913-6.36065-14.34793,0-6.90238,2.41251-12.42659,7.24764-16.56686,4.8308-4.14316,11.28968-7.14796,19.37953-9.02596,8.08407-1.87222,16.9598-2.80833,26.62717-2.80833,18.14438,0,31.70211,3.84557,40.6804,11.53671,8.97251,7.69403,13.46094,20.90938,13.46094,39.64606v76.62535c0,5.52421.59229,9.81473,1.77543,12.87153,1.18314,3.0597,3.15215,5.22662,5.91715,6.50944,2.75922,1.28282,6.31009,1.92134,10.65116,1.92134h.88699v12.42659h-39.94076l-4.73401-25.44259h-2.36628c-4.14172,5.52421-8.18664,10.40413-12.13045,14.64263-3.94814,4.24428-8.53335,7.59579-13.75708,10.06031-5.22807,2.46452-11.98309,3.69822-20.26653,3.69822ZM2099.6306,508.25097c8.08552,0,15.03846-1.67287,20.85882-5.03016,5.81458-3.35151,10.35501-8.13608,13.60973-14.34793,3.25328-6.21185,4.88136-13.46094,4.88136-21.74437v-23.96619l-18.93459.88699c-11.24345.39871-20.07295,2.07158-26.47982,5.03016-6.41121,2.95857-10.99787,7.05551-13.75708,12.27924-2.765,5.22662-4.14172,11.68695-4.14172,19.37809,0,6.11651.88699,11.19578,2.66243,15.23782,1.77543,4.04493,4.43786,7.09885,7.98729,9.17043,3.55087,2.07158,7.98873,3.10593,13.31359,3.10593Z" style="fill: #fff;"/>
    <path d="M2202.58553,523.63613v-12.42659h3.84701c4.53465,0,8.62581-.48828,12.2778-1.47929,3.64766-.98523,6.55567-3.0048,8.72837-6.0645,2.16692-3.05681,3.25328-7.64202,3.25328-13.75853v-158.57846c0-5.91715-1.13691-10.30301-3.40207-13.16624-2.26949-2.85745-5.22807-4.73256-8.87572-5.61956-3.65199-.88988-7.64636-1.33194-11.98165-1.33194h-3.84701v-12.42659h55.91822v191.12278c0,6.11651,1.08057,10.70172,3.25328,13.75853,2.16837,3.0597,5.12694,5.07927,8.87572,6.0645,3.74445.99101,7.78937,1.47929,12.13045,1.47929h3.84701v12.42659h-84.02468Z" style="fill: #fff;"/>
    <path d="M2301.69779,523.63613v-12.42659h3.84701c4.53465,0,8.62581-.48828,12.2778-1.47929,3.64766-.98523,6.55567-3.0048,8.72837-6.0645,2.16692-3.05681,3.25328-7.64202,3.25328-13.75853v-144.97017c0-5.91715-1.13691-10.30301-3.40207-13.16335-2.26949-2.85745-5.22807-4.73545-8.87572-5.62245-3.65199-.88699-7.64636-1.33194-11.98165-1.33194h-3.84701v-12.42659h86.09482v12.42659h-3.84557c-4.34107,0-8.386.49406-12.13045,1.47929-3.74878.99101-6.70735,2.95857-8.87572,5.91715-2.1727,2.95857-3.25472,7.59579-3.25472,13.90588v59.76379h96.15368v-59.76379c0-6.31009-1.08635-10.9473-3.25472-13.90588-2.1727-2.95857-5.07927-4.92614-8.72693-5.91715-3.65199-.98523-7.74315-1.47929-12.2778-1.47929h-3.84701v-12.42659h86.09482v12.42659h-3.84557c-4.34107,0-8.386.49406-12.13045,1.47929-3.74878.99101-6.70735,2.95857-8.87572,5.91715-2.1727,2.95857-3.25472,7.59579-3.25472,13.90588v145.26487c0,5.72357,1.13258,10.01408,3.40207,12.87153,2.26516,2.86034,5.22373,4.73256,8.87572,5.61956,3.64766.88988,7.64202,1.33194,11.98309,1.33194h3.84557v12.42659h-86.09482v-12.42659h3.84701c4.53465,0,8.62581-.48828,12.2778-1.47929,3.64766-.98523,6.55423-3.0048,8.72693-6.0645,2.16837-3.05681,3.25472-7.64202,3.25472-13.75853v-69.22892h-96.15368v69.22892c0,6.11651,1.08202,10.70172,3.25472,13.75853,2.16837,3.0597,5.12694,5.07927,8.87572,6.0645,3.74445.99101,7.78937,1.47929,12.13045,1.47929h3.84557v12.42659h-86.09482Z" style="fill: #fff;"/>
    <path d="M2609.98187,526.59471c-21.30232,0-38.06854-6.80414-50.29577-20.41532-12.23301-13.60829-18.34374-34.31831-18.34374-62.13007,0-27.60951,5.86659-48.17219,17.6041-61.68513,11.73173-13.50717,29.03968-20.26508,51.92241-20.26508,21.30232,0,38.0642,6.75792,50.29577,20.26508,12.22724,13.51294,18.34374,34.07562,18.34374,61.68513,0,27.81176-5.87092,48.52178-17.6041,62.13007-11.73751,13.61118-29.04546,20.41532-51.92241,20.41532ZM2610.57271,511.20954c9.86095,0,17.75145-2.51363,23.6686-7.54379,5.91715-5.03016,10.1571-12.57394,12.72274-22.63425,2.55986-10.05742,3.84557-22.38289,3.84557-36.98219,0-22.0853-3.0597-38.65505-9.17187-49.70348-6.11506-11.04265-16.56831-16.56686-31.36118-16.56686s-25.19845,5.52421-31.21239,16.56686c-6.01827,11.04843-9.02308,27.61818-9.02308,49.70348,0,22.09397,3.05536,38.80818,9.17043,50.14842,6.11217,11.34602,16.56831,17.01181,31.36118,17.01181Z" style="fill: #fff;"/>
    <path d="M2757.90916,526.59471c-9.86529,0-18.44486-1.18459-25.74018-3.55087-7.2982-2.36628-12.97121-5.86514-17.01181-10.50236-4.04493-4.63144-6.0645-10.40124-6.0645-17.30651,0-5.32775,1.08202-9.46802,3.25472-12.42659,2.16837-2.95857,4.682-5.03016,7.54379-6.21474,2.85745-1.1817,5.47365-1.77399,7.83993-1.77399,0,10.25678,2.31717,19.08339,6.95294,26.47982,4.63289,7.39644,12.96688,11.09466,25.00054,11.09466,10.4518,0,18.49109-2.51652,24.1121-7.54379,5.621-5.03016,8.43223-11.48759,8.43223-19.38098,0-4.92614-1.03579-8.97107-3.10737-12.129-2.07014-3.15215-5.72213-6.25808-10.94586-9.32067-5.22807-3.05392-12.67651-6.65679-22.33811-10.79706-10.05887-4.5361-18.39286-8.92195-24.99909-13.16624-6.61057-4.23851-11.53815-9.17043-14.79287-14.79287-3.25472-5.62245-4.88136-12.67218-4.88136-21.15497,0-13.40893,5.07494-23.71483,15.23637-30.9148,10.15565-7.19997,23.61804-10.79995,40.38426-10.79995,9.46802,0,17.40474,1.2337,23.81595,3.69822,6.40832,2.46741,11.24345,5.7698,14.49817,9.91007,3.25328,4.14316,4.88136,8.68215,4.88136,13.61118,0,5.32486-1.826,9.61537-5.47365,12.86864-3.65199,3.25617-8.92629,4.8828-15.82866,4.8828,0-9.86095-2.07014-17.55209-6.2133-23.07631-4.14172-5.52132-10.55292-8.28632-19.23074-8.28632-10.05887,0-17.26028,2.21893-21.59702,6.65679-4.34107,4.43786-6.50944,10.11232-6.50944,17.01181,0,4.93481,1.23081,9.07508,3.69822,12.42659,2.46452,3.35729,6.40832,6.46321,11.8343,9.32067,5.42309,2.86034,12.47282,6.0645,21.15497,9.61537,10.4518,4.33963,18.93459,8.68215,25.44259,13.016,6.50944,4.34252,11.28968,9.37267,14.34938,15.09047,3.05536,5.72357,4.58666,12.72129,4.58666,21.00473,0,15.38517-5.3263,26.97388-15.97746,34.76325-10.64971,7.79515-24.75495,11.68695-42.30704,11.68695Z" style="fill: #fff;"/>
    <path d="M2900.21401,526.59471c-14.99223,0-25.88753-3.40352-32.69167-10.20766-6.80559-6.80414-10.20766-18.68467-10.20766-35.65025v-98.81756h-22.48546v-11.8343c3.55087,0,7.49323-.73964,11.8343-2.21893,4.33674-1.47929,8.08552-3.8918,11.24345-7.2462,3.35151-3.55087,6.11073-7.88761,8.28343-13.01888,2.16837-5.1255,3.9438-11.43559,5.32486-18.93603h13.60973v36.39278h38.75762v16.86157h-38.75762v99.70455c0,10.06031,2.07158,17.45675,6.2133,22.18931,4.14172,4.73545,9.56481,7.10174,16.27216,7.10174,3.55087,0,6.80414-.19358,9.76272-.59229,2.95857-.39294,6.01538-.88699,9.17187-1.47929v13.01888c-2.56564,1.1817-6.41121,2.26516-11.53815,3.25328-5.13128.98523-10.05887,1.47929-14.79287,1.47929Z" style="fill: #fff;"/>
  </g>
  <path d="M2275.51917,598.21418c0-5.13128,1.47929-9.51858,4.43786-13.16479,2.95857-3.65199,8.18231-5.47365,15.67987-5.47365,7.69403,0,12.96688,1.82166,15.83011,5.47365,2.85456,3.64621,4.28762,8.03351,4.28762,13.16479,0,5.12694-1.43306,9.51425-4.28762,13.16624-2.86323,3.64766-8.13608,5.47365-15.83011,5.47365-7.49756,0-12.72129-1.826-15.67987-5.47365-2.95857-3.65199-4.43786-8.03929-4.43786-13.16624ZM2153.62531,598.21418c0-5.13128,1.47929-9.51858,4.43786-13.16479,2.95857-3.65199,8.18231-5.47365,15.67987-5.47365,7.69403,0,12.96688,1.82166,15.83011,5.47365,2.85745,3.64621,4.29051,8.03351,4.29051,13.16479,0,5.12694-1.43306,9.51425-4.29051,13.16624-2.86323,3.64766-8.13608,5.47365-15.83011,5.47365-7.49756,0-12.72129-1.826-15.67987-5.47365-2.95857-3.65199-4.43786-8.03929-4.43786-13.16624Z" style="fill: #fff;"/>
  <g>
    <path d="M1954.18135,828.05633c-13.91906,0-25.66022-3.2334-35.21934-9.7002-9.56221-6.4668-16.76528-15.50178-21.61641-27.10083-4.8501-11.59905-7.27515-25.20198-7.27515-40.80674,0-15.18462,2.56304-28.57543,7.69734-40.17448,5.13019-11.59905,12.7225-20.66904,22.7759-27.20587,10.05031-6.53682,22.45977-9.80729,37.2222-9.80729,9.56015,0,17.50464,1.02151,23.83139,3.05834,6.32675,2.04095,11.03578,4.8501,14.12913,8.43567,3.09129,3.58557,4.64003,7.62835,4.64003,12.12628,0,4.50205-1.75983,8.08762-5.2723,10.75672-3.51555,2.67116-7.87549,4.00571-13.0757,4.00571,0-4.35582-.77437-8.61073-2.31899-12.75854-1.54874-4.14575-4.1128-7.59128-7.69837-10.33452-3.58454-2.74118-8.47171-4.11074-14.65636-4.11074-10.54459,0-19.05337,2.56612-25.51811,7.69632-6.46886,5.13431-11.1439,12.62056-14.0241,22.4608-2.88329,9.8423-4.3239,21.79353-4.3239,35.85161,0,12.51552,1.50961,23.58734,4.535,33.21546,3.02127,9.63224,7.76634,17.11848,14.2352,22.45874,6.46474,5.34644,14.83142,8.01554,25.09592,8.01554,6.88694,0,12.7225-.84439,17.50361-2.53111,4.77802-1.68672,8.82183-3.90273,12.12628-6.64392,3.30239-2.74118,6.14861-5.65742,8.54174-8.75077,1.12345.70435,2.07185,1.72173,2.84622,3.05628.77128,1.33867,1.16052,3.05834,1.16052,5.16726,0,2.67322-.91647,5.37733-2.74221,8.12057-1.82883,2.74118-4.57001,5.2723-8.22457,7.59128-3.65765,2.31899-8.32961,4.21784-14.0241,5.69449-5.69449,1.47665-12.47845,2.21395-20.35085,2.21395Z" style="fill: #fff;"/>
    <path d="M2075.40258,828.05633c-15.18462,0-27.13584-4.8501-35.85161-14.55236-8.71988-9.7002-13.0757-24.46263-13.0757-44.28728,0-19.68049,4.18179-34.33788,12.54847-43.97012,8.36256-9.62812,20.69994-14.44526,37.0111-14.44526,15.18462,0,27.13275,4.81715,35.85161,14.44526,8.71576,9.63224,13.0757,24.28963,13.0757,43.97012,0,19.82465-4.18488,34.58708-12.54847,44.28728-8.36668,9.70226-20.70406,14.55236-37.0111,14.55236ZM2075.82375,817.08954c7.02904,0,12.65351-1.79176,16.87134-5.37733,4.21784-3.58557,7.24014-8.9629,9.06897-16.13405,1.82471-7.16909,2.74118-15.95487,2.74118-26.36148,0-15.74274-2.181-27.55392-6.53785-35.42941-4.35891-7.87137-11.81015-11.80912-22.35474-11.80912s-17.96184,3.93775-22.24867,11.80912c-4.28992,7.87549-6.43179,19.68667-6.43179,35.42941,0,15.74892,2.17791,27.66307,6.53682,35.74657,4.35685,8.08762,11.81015,12.12628,22.35474,12.12628Z" style="fill: #fff;"/>
    <path d="M2151.07098,825.94741v-8.85787h2.74118c3.23237,0,6.14861-.34805,8.7518-1.05446,2.60011-.70229,4.67298-2.14187,6.22172-4.32287,1.54565-2.17894,2.32002-5.44735,2.32002-9.80729v-79.08443h-19.19136v-9.91027h19.19136v-10.54459c0-12.51346,3.3374-22.10863,10.01736-28.78755,6.67584-6.67687,15.77981-10.01736,27.30987-10.01736,7.30913,0,13.10866.63226,17.39857,1.89885,4.28683,1.26453,7.38121,2.98832,9.27903,5.1652,1.89885,2.18306,2.84725,4.74507,2.84725,7.69837,0,2.53111-.73833,4.67504-2.21395,6.43179-1.47665,1.76086-3.51658,3.09541-6.11566,4.00777-2.6032.91647-5.58946,1.36956-8.9629,1.36956,0-2.80914-.4222-5.51531-1.26556-8.11851-.84336-2.59908-2.25102-4.70799-4.21784-6.32675-1.97093-1.61464-4.78111-2.42608-8.43567-2.42608-6.04666,0-10.19551,2.32105-12.44241,6.96108-2.25102,4.63797-3.37447,11.38692-3.37447,20.24479v12.44344h29.73595v9.91027h-29.73595v79.08443c0,4.35994.77128,7.62835,2.32002,9.80729,1.54462,2.181,3.65354,3.62058,6.32675,4.32287,2.6691.70641,5.55239,1.05446,8.64574,1.05446h8.01451v8.85787h-65.16536Z" style="fill: #fff;"/>
    <path d="M2264.06661,825.94741v-8.85787h2.74118c3.23237,0,6.14861-.34805,8.7518-1.05446,2.60011-.70229,4.67298-2.14187,6.22172-4.32287,1.54565-2.17894,2.32002-5.44735,2.32002-9.80729v-79.08443h-19.19136v-9.91027h19.19136v-10.54459c0-12.51346,3.3374-22.10863,10.01736-28.78755,6.67584-6.67687,15.77981-10.01736,27.30987-10.01736,7.30913,0,13.10866.63226,17.39857,1.89885,4.28683,1.26453,7.38121,2.98832,9.27903,5.1652,1.89885,2.18306,2.84725,4.74507,2.84725,7.69837,0,2.53111-.73833,4.67504-2.21395,6.43179-1.47665,1.76086-3.51658,3.09541-6.11566,4.00777-2.6032.91647-5.58946,1.36956-8.9629,1.36956,0-2.80914-.4222-5.51531-1.26556-8.11851-.84336-2.59908-2.25102-4.70799-4.21784-6.32675-1.97093-1.61464-4.78111-2.42608-8.43567-2.42608-6.04666,0-10.19551,2.32105-12.44241,6.96108-2.25102,4.63797-3.37447,11.38692-3.37447,20.24479v12.44344h29.73595v9.91027h-29.73595v79.08443c0,4.35994.77128,7.62835,2.32002,9.80729,1.54462,2.181,3.65354,3.62058,6.32675,4.32287,2.6691.70641,5.55239,1.05446,8.64574,1.05446h8.01451v8.85787h-65.16536Z" style="fill: #fff;"/>
    <path d="M2425.98954,828.05633c-15.32673,0-27.3109-5.06223-35.95767-15.18462-8.64677-10.12239-12.96964-24.32052-12.96964-42.60056,0-19.68049,4.07573-34.51294,12.23131-44.49735,8.15249-9.98029,19.68255-14.97249,34.58708-14.97249,13.63486,0,24.35759,4.21784,32.161,12.65351,7.80238,8.43567,11.70408,21.01916,11.70408,37.7484v9.70226h-70.22656c.28009,15.32467,3.05731,26.46651,8.32961,33.42553,5.2723,6.95902,12.96964,10.43956,23.09306,10.43956,7.3081,0,13.52982-1.50961,18.66413-4.535,5.13019-3.02127,8.9629-6.43179,11.49299-10.22743.98238.4222,1.89782,1.26453,2.74221,2.53111.84336,1.26453,1.26453,2.81326,1.26453,4.63797,0,2.81532-1.33764,5.8366-4.00674,9.07-2.67219,3.23546-6.74792,6.00959-12.23131,8.32858-5.48339,2.32105-12.44241,3.48054-20.87808,3.48054ZM2446.44543,759.51649c0-11.24688-1.72276-20.27774-5.16623-27.09877-3.44759-6.81897-9.3851-10.22949-17.82077-10.22949-7.73339,0-13.74401,3.20045-18.03084,9.59517-4.29095,6.4009-6.78499,15.64389-7.48728,27.7331h48.50511Z" style="fill: #fff;"/>
    <path d="M2542.78184,828.05633c-15.32673,0-27.3109-5.06223-35.95767-15.18462-8.64677-10.12239-12.96964-24.32052-12.96964-42.60056,0-19.68049,4.07573-34.51294,12.23131-44.49735,8.15249-9.98029,19.68255-14.97249,34.58708-14.97249,13.63486,0,24.35759,4.21784,32.161,12.65351,7.80238,8.43567,11.70408,21.01916,11.70408,37.7484v9.70226h-70.22656c.28009,15.32467,3.05731,26.46651,8.32961,33.42553,5.2723,6.95902,12.96964,10.43956,23.09306,10.43956,7.3081,0,13.52982-1.50961,18.66413-4.535,5.13019-3.02127,8.9629-6.43179,11.49299-10.22743.98238.4222,1.89782,1.26453,2.74221,2.53111.84336,1.26453,1.26453,2.81326,1.26453,4.63797,0,2.81532-1.33764,5.8366-4.00674,9.07-2.67219,3.23546-6.74792,6.00959-12.23131,8.32858-5.48339,2.32105-12.44241,3.48054-20.87808,3.48054ZM2563.23773,759.51649c0-11.24688-1.72276-20.27774-5.16623-27.09877-3.44759-6.81897-9.3851-10.22949-17.82077-10.22949-7.73339,0-13.74401,3.20045-18.03084,9.59517-4.29095,6.4009-6.78499,15.64389-7.48728,27.7331h48.50511Z" style="fill: #fff;"/>
  </g>
  <line x1="2116.49505" y1="598.2149" x2="1545.7942" y2="598.2149" style="fill: #fff; stroke: #fff; stroke-linecap: round; stroke-miterlimit: 10; stroke-width: 8.87572px;"/>
  <line x1="2925.41198" y1="598.2149" x2="2354.71113" y2="598.2149" style="fill: #fff; stroke: #fff; stroke-linecap: round; stroke-miterlimit: 10; stroke-width: 8.87572px;"/>
</svg>