<?xml version="1.0" encoding="UTF-8"?>
<svg id="uuid-ecf2ce62-38f3-4bfb-af84-d7e0410271ad" data-name="Layer 1" xmlns="http://www.w3.org/2000/svg" width="3000" height="3000" viewBox="0 0 3000 3000">
  <path d="M2895.83779,1375.18197c-75.0952-98.92865-213.38843-142.13072-414.83739-129.6062-196.47411,12.20525-414.1861,65.7066-653.07451,160.18798-45.21659-15.57343-98.089-33.82864-158.78245-54.82308-165.78139-57.30372-283.18793-98.29332-352.97944-120.12422-94.02963-32.02163-165.18039-55.59249-213.39561-70.67427,17.02047-9.29681,88.19837-50.90897,220.23333-127.05533,43.47344-22.62905,83.22193-41.66324,147.36017-69.04286,76.9469,58.95429,156.38402,89.96387,247.69196,108.16799,169.91978,34.29156,296.52974-1.04398,379.80195-105.97149,38.89766-49.56808,53.75995-98.19116,44.55652-145.94266-9.24333-47.72915-39.6128-87.14162-91.10442-118.20548-27.59112-15.14243-61.67038-27.56478-102.24016-37.2447-88.08743-20.76777-214.50743,8.40289-379.33743,87.4513-28.936,14.99238-59.51458,27.15613-89.4762,39.89136-14.71702,6.25428-29.39653,12.71607-44.25323,18.64151-16.84648.83326-33.43196-5.18795-42.97699-19.1172-48.36767-70.59445-55.4161-168.49828-15.01952-244.33177,14.7266-27.6446,36.91746-53.53966,67.01796-62.20114,30.10129-8.66468,68.05794,6.32132,75.81433,36.67004-1.54681-42.04635-39.94084-77.3755-81.75254-82.05583-41.8117-4.68352-83.77903,17.32616-109.95584,50.26407-26.17761,32.93791-38.11947,75.3514-41.1644,117.31156-6.45062,88.87839,32.9403,171.17686,81.69906,241.70427l-112.67113,65.7513c-104.71361,51.46129-224.3805,113.19631-359.38058,185.46368-365.64682-102.42453-611.4807-105.46387-737.49205-9.15953-46.15521,35.27807-73.95624,75.32267-83.33207,120.09549-9.39738,44.74728,1.07431,87.17674,31.51401,127.27242,65.57571,86.38817,162.2049,125.31537,289.82052,116.83267,135.73597-10.77817,343.31229-93.23627,622.64916-247.34237,34.2317,11.3688,686.98296,236.30241,702.52047,241.69788-.01038.00639-487.3418,204.13392-391.54588,727.1816,16.46736,89.90959,62.01677,186.64494,149.25657,212.99015-89.7771-125.51331-119.38195-292.42168-78.27581-441.30472,68.52167-248.17883,283.69395-334.3946,497.93799-427.1456,228.58434,72.58982,423.59864,116.46233,584.99342,131.64627,161.33891,15.1552,287.58731-12.06159,378.68614-81.68549,33.68018-25.73862,53.74478-56.43214,60.24648-92.05182,6.46419-35.62606-3.0992-70.33905-28.75243-104.13576ZM1534.477,919.72133l246.1268-124.02876c93.27697-41.73986,169.98443-53.62905,230.15589-35.69311,18.11234,5.75942,32.73198,13.88136,43.81904,24.38497,11.05193,10.48126,18.25441,22.69928,21.58667,36.69558,3.29475,13.97395,2.42716,28.35335-2.57642,43.05521-5.01236,14.74336-14.555,29.21854-28.62951,43.41916-44.39689,41.20989-108.92224,69.06201-193.59839,83.534-148.01066,27.41473-258.3544,6.01164-330.96657-64.22844l14.08249-7.13862ZM376.02418,1332.70781c-108.2949,31.31926-182.67576,20.42297-223.07074-32.79105-40.40935-53.23636-26.25503-106.07685,42.36002-158.51826,104.80859-80.10197,310.6274-79.11866,617.44844,2.98187-182.84816,94.20362-328.44442,157.00497-436.73772,188.32743ZM2829.14946,1521.10229c-72.38549,55.32432-176.85328,76.79765-313.40096,64.43276-136.58919-12.37446-304.3827-48.35171-503.40689-107.92536,203.32141-80.2169,382.15409-128.38983,536.6002-144.47727,154.36231-16.1034,256.28082,8.38373,305.72439,73.51886,30.40299,40.05418,21.89395,78.21515-25.51674,114.451Z" style="fill: #231f20;"/>
</svg>