<?xml version="1.0" encoding="UTF-8"?>
<svg id="uuid-33aee591-84b4-4aa2-95a7-75624ae2e552" data-name="Layer 1" xmlns="http://www.w3.org/2000/svg" width="3000" height="1200" viewBox="0 0 3000 1200">
  <g id="uuid-c189b31d-1a42-488a-9fc3-8e38c626c895" data-name="Stylized Text">
    <g>
      <g>
        <g>
          <path d="M222.19736,526.61835v-22.92072h7.09578c8.36412,0,15.91021-.90063,22.64627-2.72853,6.72807-1.81724,12.09187-5.54233,16.0994-11.18591,3.99687-5.63825,6.00064-14.09563,6.00064-25.37746V199.1947c0-11.63889-2.00376-20.19219-6.00064-25.64925-4.00753-5.45706-9.37133-9.08622-16.0994-10.91412-6.73606-1.81724-14.28215-2.72853-22.64627-2.72853h-7.09578v-22.92072h158.801v22.92072h-7.09311c-8.00706,0-15.37463.82069-22.1027,2.45674-6.73606,1.63605-12.19312,5.10001-16.37118,10.37055-4.18606,5.27587-6.27509,13.36554-6.27509,24.27966v302.3233h107.50516c10.91412,0,19.73122-2.45674,26.46728-7.3649,6.7254-4.91349,11.73215-11.19124,15.00692-18.82793,3.2721-7.64202,5.45706-15.2787,6.54687-22.92072l5.45706-40.92796h28.37778l-3.82101,117.32681H222.19736Z" style="fill: #231f20;"/>
          <path d="M698.0488,532.07542c-39.2919,0-70.21703-12.55017-92.77003-37.65585-22.56367-25.10035-33.83484-63.29977-33.83484-114.59828,0-50.92546,10.82086-88.8531,32.47058-113.77759,21.63906-24.91383,53.5634-37.37874,95.77035-37.37874,39.2919,0,70.20903,12.46491,92.77003,37.37874,22.55301,24.92449,33.83484,62.85212,33.83484,113.77759,0,51.2985-10.82886,89.49793-32.47058,114.59828-21.64972,25.10568-53.57406,37.65585-95.77035,37.65585ZM699.13862,503.69763c18.18843,0,32.74237-4.63637,43.65649-13.91444,10.91412-9.27807,18.73467-23.19251,23.46696-41.74865,4.72164-18.55081,7.09311-41.28501,7.09311-68.21326,0-40.73611-5.64358-71.29885-16.91742-91.67756-11.27917-20.36805-30.56007-30.55741-57.84538-30.55741s-46.47828,10.18936-57.57093,30.55741c-11.10064,20.37871-16.64297,50.94145-16.64297,91.67756,0,40.75209,5.63559,71.58129,16.91476,92.49825,11.27384,20.92762,30.56007,31.3781,57.84538,31.3781Z" style="fill: #231f20;"/>
          <path d="M1010.73466,532.07542c-24.01053,0-45.3858-5.10001-64.12047-15.2787-18.73999-10.18403-33.47512-26.27809-44.20006-48.29819-10.73559-22.00411-16.0994-50.83487-16.0994-86.49228,0-38.92419,5.3638-69.57753,16.0994-91.94934,10.72494-22.37715,25.28154-38.19943,43.65649-47.4775,18.36429-9.27807,39.01745-13.91444,61.93551-13.91444,15.28137,0,30.19503,2.00376,44.74896,6.00064,14.54594,4.00753,26.55254,10.09343,36.01713,18.27902,9.4566,8.18559,14.18889,18.65206,14.18889,31.3781,0,8.37744-1.82524,15.10284-5.45706,20.19219-3.64248,5.10001-9.00628,8.73449-16.0994,10.91412-7.09311,2.18496-16.0994,3.27743-27.01352,3.27743,0-11.63889-1.36427-22.19063-4.0928-31.65522-2.72853-9.45393-7.3649-17.00002-13.91444-22.64361-6.54954-5.63825-16.01413-8.45738-28.37778-8.45738-13.82917,0-25.92104,3.63982-36.28892,10.91412-10.36788,7.27963-18.37495,20.011-24.01053,38.19943-5.64358,18.19376-8.45738,43.65649-8.45738,76.39885,0,25.83577,2.8138,47.2963,8.45738,64.39225,5.63559,17.10128,14.46068,29.83264,26.46728,38.19943,12.00394,8.37211,27.83154,12.55017,47.47483,12.55017,11.27384,0,21.64172-1.63605,31.10631-4.91349,9.4566-3.2721,17.73545-7.81788,24.82856-13.64265,7.09578-5.81411,12.63811-12.36365,16.64563-19.64329,2.90706,2.18496,5.18261,5.00408,6.82133,8.45738,1.63605,3.46395,2.45408,7.73261,2.45408,12.82729,0,8.37211-3.46129,16.5577-10.36788,24.55677-6.91459,8.0044-17.18921,14.64453-30.83186,19.91507-13.64265,5.27054-30.83186,7.9138-51.57029,7.9138Z" style="fill: #231f20;"/>
          <path d="M1236.65112,532.07542c-16.01413,0-30.47481-3.18684-43.3847-9.54986-12.91789-6.36302-23.01132-16.00347-30.28562-28.92136-7.2823-12.91256-10.91412-29.19847-10.91412-48.84176,0-29.10255,10.27462-50.56308,30.83186-64.39225,20.54924-13.82384,51.74882-21.46053,93.58806-22.92072l45.2952-1.63605v-32.74237c0-13.09908-1.09248-24.64204-3.27477-34.65553-2.18229-9.99751-6.91459-17.91131-14.18889-23.73608-7.2823-5.81411-18.37495-8.72917-33.2886-8.72917-13.82917,0-24.37558,2.54734-31.64989,7.63669-7.2823,5.10001-12.09986,12.10252-14.46068,21.01288-2.37148,8.91569-3.54656,19.19031-3.54656,30.8292-15.28137,0-26.83499-2.63261-34.65287-7.9138-7.82854-5.26521-11.73215-14.0903-11.73215-26.46461,0-12.73137,4.44985-22.92072,13.3682-30.55741,8.91036-7.64202,20.8237-13.18434,35.74535-16.6483,14.91099-3.4533,31.28218-5.17994,49.11355-5.17994,33.46713,0,58.47422,7.09311,75.03459,21.27934,16.54971,14.19156,24.82856,38.56714,24.82856,73.12675v141.33468c0,10.18936,1.09248,18.10316,3.27477,23.74141,2.18229,5.64358,5.81411,9.64045,10.91412,12.0066,5.08935,2.36615,11.63889,3.54389,19.64595,3.54389h1.63605v22.92072h-73.67032l-8.73183-46.92859h-4.36458c-7.63935,10.18936-15.10018,19.19031-22.37448,27.00819-7.2823,7.82854-15.73968,14.01036-25.3748,18.55614-9.64312,4.54577-22.1027,6.82133-37.3814,6.82133ZM1249.20129,498.24057c14.91366,0,27.73828-3.08558,38.47388-9.27807,10.72494-6.18183,19.09971-15.00692,25.10301-26.46461,6.00064-11.4577,9.00362-24.82856,9.00362-40.10727v-44.20539l-34.92466,1.63605c-20.73843.73542-37.02435,3.82101-48.84176,9.27807-11.82541,5.45706-20.28545,13.01381-25.3748,22.64893-5.10001,9.64045-7.63935,21.55646-7.63935,35.74268,0,11.28183,1.63605,20.6505,4.91082,28.106,3.27477,7.46083,8.18559,13.09375,14.73247,16.91476,6.54954,3.82101,14.73513,5.72885,24.55677,5.72885Z" style="fill: #231f20;"/>
          <path d="M1439.10062,526.61835v-22.92072h7.09578c8.36412,0,15.91021-.90063,22.64627-2.72853,6.72807-1.81724,12.09187-5.54233,16.0994-11.18591,3.99687-5.63825,6.00064-14.09563,6.00064-25.37746V171.9094c0-10.91412-2.09702-19.00379-6.27509-24.28499-4.18606-5.27054-9.64312-8.72917-16.37118-10.36522-6.73606-1.64138-14.10362-2.45674-22.10003-2.45674h-7.09578v-22.92072h103.14058v352.524c0,11.28183,1.99311,19.73921,6.00064,25.37746,3.99954,5.64358,9.4566,9.36867,16.37118,11.18591,6.90659,1.8279,14.36742,2.72853,22.37448,2.72853h7.09578v22.92072h-154.98266Z" style="fill: #231f20;"/>
          <path d="M1621.91215,526.61835v-22.92072h7.09578c8.36412,0,15.91021-.90063,22.64627-2.72853,6.72807-1.81724,12.09187-5.54233,16.0994-11.18591,3.99687-5.63825,6.00064-14.09563,6.00064-25.37746V197.00975c0-10.91412-2.09702-19.00379-6.27509-24.27966-4.18606-5.27054-9.64312-8.73449-16.37118-10.37055-6.73606-1.63605-14.10362-2.45674-22.10003-2.45674h-7.09578v-22.92072h158.801v22.92072h-7.09311c-8.00706,0-15.46789.91129-22.37448,2.72853-6.91459,1.8279-12.37165,5.45706-16.37118,10.91412-4.00753,5.45706-6.0033,14.01036-6.0033,25.64925v110.2337h177.35448v-110.2337c0-11.63889-2.00376-20.19219-6.0033-25.64925-4.00753-5.45706-9.36867-9.08622-16.09673-10.91412-6.73606-1.81724-14.28215-2.72853-22.64627-2.72853h-7.09578v-22.92072h158.801v22.92072h-7.09311c-8.00706,0-15.46789.91129-22.37448,2.72853-6.91459,1.8279-12.37165,5.45706-16.37118,10.91412-4.00753,5.45706-6.0033,14.01036-6.0033,25.64925v267.93956c0,10.55707,2.08903,18.47087,6.27509,23.74141,4.17806,5.27587,9.63512,8.72917,16.37118,10.36522,6.72807,1.64138,14.09563,2.45674,22.1027,2.45674h7.09311v22.92072h-158.801v-22.92072h7.09578c8.36412,0,15.91021-.90063,22.64627-2.72853,6.72807-1.81724,12.0892-5.54233,16.09673-11.18591,3.99954-5.63825,6.0033-14.09563,6.0033-25.37746v-127.69203h-177.35448v127.69203c0,11.28183,1.99577,19.73921,6.0033,25.37746,3.99954,5.64358,9.4566,9.36867,16.37118,11.18591,6.90659,1.8279,14.36742,2.72853,22.37448,2.72853h7.09311v22.92072h-158.801Z" style="fill: #231f20;"/>
          <path d="M2190.53896,532.07542c-39.2919,0-70.21703-12.55017-92.77003-37.65585-22.56367-25.10035-33.83484-63.29977-33.83484-114.59828,0-50.92546,10.82086-88.8531,32.47058-113.77759,21.63906-24.91383,53.5634-37.37874,95.77035-37.37874,39.2919,0,70.20903,12.46491,92.77003,37.37874,22.55301,24.92449,33.83484,62.85212,33.83484,113.77759,0,51.2985-10.82886,89.49793-32.47058,114.59828-21.64972,25.10568-53.57406,37.65585-95.77035,37.65585ZM2191.62878,503.69763c18.18843,0,32.74237-4.63637,43.65649-13.91444,10.91412-9.27807,18.73467-23.19251,23.46696-41.74865,4.72164-18.55081,7.09311-41.28501,7.09311-68.21326,0-40.73611-5.64358-71.29885-16.91742-91.67756-11.27917-20.36805-30.56007-30.55741-57.84538-30.55741s-46.47828,10.18936-57.57093,30.55741c-11.10064,20.37871-16.64297,50.94145-16.64297,91.67756,0,40.75209,5.63559,71.58129,16.91476,92.49825,11.27384,20.92762,30.56007,31.3781,57.84538,31.3781Z" style="fill: #231f20;"/>
          <path d="M2463.38934,532.07542c-18.19642,0-34.02136-2.18496-47.4775-6.54954-13.46146-4.36458-23.92527-10.8182-31.3781-19.3715-7.46083-8.54265-11.18591-19.18498-11.18591-31.92167,0-9.82697,1.99577-17.46366,6.0033-22.92072,3.99954-5.45706,8.63591-9.27807,13.91444-11.46303,5.27054-2.17963,10.0961-3.2721,14.46068-3.2721,0,18.91852,4.27399,35.19911,12.82463,48.84176,8.54531,13.64265,23.91727,20.46398,46.11323,20.46398,19.27824,0,34.10663-4.6417,44.47451-13.91444,10.36788-9.27807,15.55316-21.18874,15.55316-35.74801,0-9.08622-1.9105-16.54704-5.73151-22.37182-3.81834-5.81411-10.5544-11.54296-20.18953-17.19187-9.64312-5.63292-23.38169-12.27839-41.20241-19.91507-18.55347-8.36678-33.92544-16.45645-46.11057-24.28499-12.19312-7.81788-21.282-16.91476-27.2853-27.2853-6.0033-10.37055-9.00362-23.3737-9.00362-39.02012,0-24.73264,9.36067-43.74175,28.10333-57.02202,18.732-13.28027,43.56323-19.9204,74.48835-19.9204,17.46366,0,32.10287,2.27555,43.92827,6.82133,11.82008,4.5511,20.73843,10.64233,26.74173,18.27902,6.00064,7.64202,9.00362,16.01413,9.00362,25.10568,0,9.82164-3.36803,17.73545-10.0961,23.73608-6.73606,6.00596-16.46444,9.00628-29.19581,9.00628,0-18.18843-3.81834-32.37465-11.46036-42.56401-7.63935-10.18403-19.46476-15.28403-35.4709-15.28403-18.55347,0-31.83641,4.0928-39.83548,12.27839-8.00706,8.18559-12.0066,18.65206-12.0066,31.3781,0,9.10221,2.27022,16.73889,6.82133,22.92072,4.54577,6.19249,11.82008,11.92133,21.82824,17.19187,10.00284,5.27587,23.00599,11.18591,39.02012,17.73545,19.27824,8.0044,34.92466,16.01413,46.92859,24.00787,12.0066,8.00973,20.8237,17.2878,26.46728,27.83421,5.63559,10.55707,8.46004,23.4643,8.46004,38.743,0,28.37778-9.82431,49.75305-29.47026,64.12047-19.64329,14.37808-45.66025,21.55646-78.0349,21.55646Z" style="fill: #231f20;"/>
          <path d="M2725.86917,532.07542c-27.65302,0-47.74928-6.27775-60.29946-18.82793-12.55284-12.55017-18.82793-34.46368-18.82793-65.75652v-182.26796h-41.4742v-21.82824c6.54954,0,13.82118-1.36427,21.82824-4.0928,7.99907-2.72853,14.91366-7.17838,20.73843-13.36554,6.18183-6.54954,11.27118-14.54861,15.2787-24.0132,3.99954-9.45393,7.2743-21.09282,9.82164-34.92732h25.10301v67.12611h71.48803v31.10098h-71.48803v183.90402c0,18.55614,3.82101,32.19879,11.46036,40.92796,7.63935,8.73449,17.64219,13.09908,30.01383,13.09908,6.54954,0,12.55017-.35705,18.00724-1.09248,5.45706-.72477,11.09531-1.63605,16.91742-2.72853v24.0132c-4.73229,2.17963-11.82541,4.17806-21.282,6.00064-9.46459,1.81724-18.55347,2.72853-27.2853,2.72853Z" style="fill: #231f20;"/>
        </g>
        <path d="M1573.62596,664.17679c0-9.46459,2.72853-17.55692,8.18559-24.28232,5.45706-6.73606,15.09218-10.0961,28.92136-10.0961,14.19156,0,23.91727,3.36004,29.19847,10.0961,5.26521,6.7254,7.90847,14.81773,7.90847,24.28232,0,9.4566-2.64326,17.54893-7.90847,24.28499-5.2812,6.72807-15.00692,10.0961-29.19847,10.0961-13.82917,0-23.4643-3.36803-28.92136-10.0961-5.45706-6.73606-8.18559-14.82839-8.18559-24.28499ZM1348.79399,664.17679c0-9.46459,2.72853-17.55692,8.18559-24.28232,5.45706-6.73606,15.09218-10.0961,28.92136-10.0961,14.19156,0,23.91727,3.36004,29.19847,10.0961,5.27054,6.7254,7.9138,14.81773,7.9138,24.28232,0,9.4566-2.64326,17.54893-7.9138,24.28499-5.2812,6.72807-15.00692,10.0961-29.19847,10.0961-13.82917,0-23.4643-3.36803-28.92136-10.0961-5.45706-6.73606-8.18559-14.82839-8.18559-24.28499Z" style="fill: #231f20;"/>
        <g>
          <path d="M980.92165,1088.11827c-25.67357,0-47.33001-5.96397-64.96172-17.89192-17.6374-11.92794-30.92339-28.59288-39.87125-49.98721-8.94596-21.39433-13.41894-46.4848-13.41894-75.26761,0-28.00788,4.72749-52.70708,14.19767-74.10141,9.46258-21.39433,23.46652-38.12384,42.00992-50.18094,18.5377-12.0571,41.42682-18.08945,68.65596-18.08945,17.63361,0,32.28712,1.88416,43.95676,5.64108,11.66963,3.76452,20.35538,8.94596,26.06104,15.55951,5.70186,6.61355,8.55849,14.07042,8.55849,22.3668,0,8.30398-3.246,14.91753-9.72469,19.84065-6.4844,4.92693-14.52626,7.38849-24.118,7.38849,0-8.03427-1.42831-15.8824-4.27735-23.533-2.85663-7.6468-7.58602-14.00204-14.19957-19.06192-6.61165-5.05608-15.62599-7.58222-27.03351-7.58222-19.44939,0-35.14375,4.73319-47.0679,14.19577-11.93174,9.47018-20.55481,23.27849-25.86731,41.42872-5.31819,18.15403-7.97539,40.19793-7.97539,66.12792,0,23.08475,2.78445,43.50661,8.36476,61.26557,5.57271,17.76656,14.32493,31.57487,26.25667,41.42492,11.92415,9.86145,27.3564,14.78457,46.28916,14.78457,12.70288,0,23.46652-1.55747,32.28522-4.66861,8.813-3.11114,16.27177-7.19855,22.3668-12.25463,6.09123-5.05608,11.34104-10.43505,15.75514-16.14071,2.0722,1.29916,3.8215,3.17572,5.24982,5.63728,1.42262,2.46916,2.14057,5.64108,2.14057,9.53096,0,4.93072-1.69043,9.91843-5.05798,14.97831-3.37325,5.05608-8.42933,9.72469-15.17014,14.00204-6.74651,4.27735-15.36388,7.77976-25.86731,10.50343-10.50343,2.72367-23.01638,4.08361-37.53694,4.08361Z" style="fill: #231f20;"/>
          <path d="M1204.51297,1088.11827c-28.00788,0-50.05178-8.94596-66.12792-26.84167-16.08373-17.89192-24.118-45.12106-24.118-81.68743,0-36.30046,7.71328-63.33587,23.14553-81.10243,15.42466-17.75896,38.18082-26.64414,68.26659-26.64414,28.00788,0,50.04609,8.88518,66.12792,26.64414,16.07613,17.76656,24.118,44.80197,24.118,81.10243,0,36.56637-7.71898,63.79551-23.14553,81.68743-15.43225,17.89572-38.18842,26.84167-68.26659,26.84167ZM1205.2898,1067.89015c12.96499,0,23.33927-3.30488,31.11902-9.91843,7.77976-6.61355,13.35436-16.53198,16.72761-29.75908,3.36566-13.2233,5.05608-29.4286,5.05608-48.62347,0-29.03733-4.02283-50.82292-12.059-65.34918-8.03997-14.51866-21.78369-21.7818-41.23308-21.7818s-33.13044,7.26313-41.03745,21.7818c-7.91271,14.52626-11.86337,36.31186-11.86337,65.34918,0,29.04872,4.01713,51.02425,12.0571,65.93419,8.03617,14.91753,21.78369,22.3668,41.23308,22.3668Z" style="fill: #231f20;"/>
          <path d="M1344.08255,1084.22839v-16.33825h5.05608c5.96207,0,11.34104-.64198,16.14261-1.94494,4.79587-1.29536,8.61927-3.95066,11.4759-7.97349,2.85093-4.01903,4.27925-10.04758,4.27925-18.08945v-145.87041h-35.39827v-18.27939h35.39827v-19.44939c0-23.08095,6.15581-40.77914,18.47692-53.09835,12.31351-12.31541,29.10571-18.47692,50.37278-18.47692,13.48162,0,24.17878,1.1662,32.09149,3.50241,7.90701,2.33241,13.61457,5.51193,17.11508,9.52716,3.50241,4.02663,5.25171,8.75222,5.25171,14.19957,0,4.66861-1.36184,8.62307-4.08361,11.86337-2.72367,3.2479-6.48629,5.70946-11.28027,7.39229-4.80157,1.69043-10.3097,2.52614-16.53198,2.52614,0-5.18144-.77874-10.17294-2.33431-14.97451-1.55557-4.79397-4.15199-8.68385-7.77976-11.66963-3.63536-2.97819-8.8187-4.47488-15.55951-4.47488-11.15301,0-18.80551,4.28114-22.9499,12.83964-4.15199,8.55469-6.22418,21.00306-6.22418,37.34131v22.9518h54.84765v18.27939h-54.84765v145.87041c0,8.04187,1.42262,14.07042,4.27925,18.08945,2.84903,4.02283,6.73891,6.67813,11.66963,7.97349,4.92313,1.30296,10.24132,1.94494,15.94698,1.94494h14.78267v16.33825h-120.19684Z" style="fill: #231f20;"/>
          <path d="M1552.50182,1084.22839v-16.33825h5.05608c5.96207,0,11.34104-.64198,16.14261-1.94494,4.79587-1.29536,8.61927-3.95066,11.4759-7.97349,2.85093-4.01903,4.27925-10.04758,4.27925-18.08945v-145.87041h-35.39827v-18.27939h35.39827v-19.44939c0-23.08095,6.15581-40.77914,18.47692-53.09835,12.31351-12.31541,29.10571-18.47692,50.37278-18.47692,13.48162,0,24.17878,1.1662,32.09149,3.50241,7.90701,2.33241,13.61457,5.51193,17.11508,9.52716,3.50241,4.02663,5.25171,8.75222,5.25171,14.19957,0,4.66861-1.36184,8.62307-4.08361,11.86337-2.72367,3.2479-6.48629,5.70946-11.28027,7.39229-4.80157,1.69043-10.3097,2.52614-16.53198,2.52614,0-5.18144-.77874-10.17294-2.33431-14.97451-1.55557-4.79397-4.15199-8.68385-7.77976-11.66963-3.63536-2.97819-8.8187-4.47488-15.55951-4.47488-11.15301,0-18.80551,4.28114-22.9499,12.83964-4.15199,8.55469-6.22418,21.00306-6.22418,37.34131v22.9518h54.84765v18.27939h-54.84765v145.87041c0,8.04187,1.42262,14.07042,4.27925,18.08945,2.84903,4.02283,6.73891,6.67813,11.66963,7.97349,4.92313,1.30296,10.24132,1.94494,15.94698,1.94494h14.78267v16.33825h-120.19684Z" style="fill: #231f20;"/>
          <path d="M1851.16702,1088.11827c-28.26999,0-50.37467-9.33723-66.32355-28.00788-15.94888-18.67065-23.92237-44.85895-23.92237-78.57629,0-36.30046,7.51764-63.65876,22.56053-82.0749,15.03719-18.40854,36.30426-27.61661,63.79551-27.61661,25.14935,0,44.92733,7.77976,59.32063,23.33927,14.39141,15.55951,21.58806,38.76962,21.58806,69.62653v17.89572h-129.53216c.51662,28.26619,5.63918,48.8172,15.36388,61.65304,9.72469,12.83584,23.92237,19.25565,42.59492,19.25565,13.47972,0,24.95562-2.78445,34.4258-8.36476,9.46258-5.57271,16.53198-11.86337,21.19869-18.86439,1.81198.77874,3.50051,2.33241,5.05798,4.66861,1.55557,2.33241,2.33241,5.18904,2.33241,8.55469,0,5.19283-2.46726,10.76554-7.39039,16.72951-4.92882,5.96777-12.44647,11.08463-22.56053,15.36198-10.11406,4.28114-22.9499,6.41982-38.50941,6.41982ZM1888.89769,961.69725c0-20.74475-3.17762-37.40208-9.52906-49.98341-6.35904-12.57752-17.31072-18.86819-32.87023-18.86819-14.26415,0-25.35068,5.90319-33.25769,17.69818-7.91461,11.80639-12.51485,28.85499-13.81021,51.15341h89.46718Z" style="fill: #231f20;"/>
          <path d="M2066.58921,1088.11827c-28.26999,0-50.37467-9.33723-66.32355-28.00788-15.94888-18.67065-23.92237-44.85895-23.92237-78.57629,0-36.30046,7.51764-63.65876,22.56053-82.0749,15.03719-18.40854,36.30426-27.61661,63.79551-27.61661,25.14935,0,44.92733,7.77976,59.32063,23.33927,14.39141,15.55951,21.58806,38.76962,21.58806,69.62653v17.89572h-129.53216c.51662,28.26619,5.63918,48.8172,15.36388,61.65304,9.72469,12.83584,23.92237,19.25565,42.59492,19.25565,13.47972,0,24.95562-2.78445,34.4258-8.36476,9.46258-5.57271,16.53198-11.86337,21.19869-18.86439,1.81198.77874,3.50051,2.33241,5.05798,4.66861,1.55557,2.33241,2.33241,5.18904,2.33241,8.55469,0,5.19283-2.46726,10.76554-7.39039,16.72951-4.92882,5.96777-12.44647,11.08463-22.56053,15.36198-10.11406,4.28114-22.9499,6.41982-38.50941,6.41982ZM2104.31988,961.69725c0-20.74475-3.17762-37.40208-9.52906-49.98341-6.35904-12.57752-17.31072-18.86819-32.87023-18.86819-14.26415,0-25.35068,5.90319-33.25769,17.69818-7.91461,11.80639-12.51485,28.85499-13.81021,51.15341h89.46718Z" style="fill: #231f20;"/>
        </g>
      </g>
      <path d="M2772.3442,672.22522h-1052.64787c-4.44935,0-8.0497-3.60035-8.0497-8.0497s3.60035-8.0497,8.0497-8.0497h1052.64787c4.44935,0,8.0497,3.60035,8.0497,8.0497s-3.60035,8.0497-8.0497,8.0497Z" style="fill: #231f20;"/>
      <path d="M1280.31153,672.22522H227.6558c-4.44935,0-8.0497-3.60035-8.0497-8.0497s3.60035-8.0497,8.0497-8.0497h1052.65573c4.44935,0,8.0497,3.60035,8.0497,8.0497s-3.60035,8.0497-8.0497,8.0497Z" style="fill: #231f20;"/>
    </g>
  </g>
</svg>