<?xml version="1.0" encoding="UTF-8"?>
<svg id="uuid-fcac28e3-b564-480f-bf33-12004036134a" data-name="Layer 1" xmlns="http://www.w3.org/2000/svg" width="3000" height="400" viewBox="0 0 3000 400">
  <path d="M530.65374,193.56868c-12.27914-16.17625-34.89205-23.2404-67.83184-21.19246-32.12632,1.99573-67.72534,10.74397-106.78701,26.19302-7.39356-2.54648-16.03895-5.53147-25.9632-8.96436-27.10762-9.36998-46.30527-16.07236-57.71718-19.64203-15.37519-5.23599-27.00935-9.09017-34.89323-11.55625,2.78309-1.52016,14.42169-8.32434,36.01129-20.77536,7.10853-3.70017,13.60797-6.81253,24.09549-11.28949,12.58192,9.63987,25.57102,14.71038,40.50117,17.68701,27.78431,5.60716,48.48685-.1707,62.10304-17.32785,6.36032-8.10509,8.79052-16.05566,7.28563-23.86371-1.51142-7.8044-6.47726-14.2489-14.89687-19.32828-4.51154-2.476-10.08399-4.50724-16.71773-6.09004-14.40355-3.39583-35.07503,1.37399-62.02709,14.29954-4.73145,2.45147-9.73148,4.44042-14.63064,6.52281-2.40644,1.02266-4.80675,2.07926-7.23603,3.04815-2.75464.13625-5.4666-.8483-7.02735-3.12594-7.9088-11.5432-9.06132-27.55187-2.45591-39.95173,2.40801-4.52029,6.03653-8.7545,10.95839-10.17078,4.92199-1.4168,11.12845,1.03363,12.39673,5.99607-.25293-6.87518-6.5309-12.652-13.36771-13.4173-6.83681-.76582-13.69907,2.83307-17.97935,8.21889-4.28041,5.38582-6.23308,12.32103-6.73097,19.18211-1.05477,14.53289,5.38621,27.98986,13.35896,39.5221l-18.42334,10.75128c-17.12217,8.41466-36.68942,18.50921-58.76386,30.32596-59.78848-16.74787-99.98583-17.24485-120.59048-1.49771-7.54704,5.76847-12.0929,12.31633-13.62598,19.63733-1.53661,7.31682.17566,14.25464,5.15299,20.81086,10.72256,14.1257,26.52282,20.49085,47.38979,19.10381,22.19477-1.76238,56.13646-15.24546,101.81203-40.44401,5.59737,1.85896,112.33152,38.63882,114.87213,39.52105-.0017.00104-79.68734,33.37881-64.02334,118.90457,2.69265,14.7015,10.14063,30.51911,24.40558,34.82693-14.67984-20.52322-19.52065-47.81512-12.79921-72.15962,11.20427-40.58078,46.38801-54.67829,81.41997-69.8444,37.3768,11.86947,69.26443,19.04325,95.65478,21.52604,26.38122,2.47809,47.02463-1.97224,61.92059-13.35674,5.50719-4.20863,8.78804-9.22746,9.85116-15.05179,1.05699-5.82537-.50676-11.50144-4.70143-17.02768ZM308.05181,119.09437l40.24525-20.28047c15.25212-6.82506,27.79488-8.76912,37.63377-5.83633,2.96163.94175,5.35215,2.2698,7.16504,3.98729,1.80715,1.71384,2.98486,3.71166,3.52973,6.00025.53874,2.28494.39688,4.63618-.42128,7.04014-.81959,2.41075-2.37995,4.77765-4.68133,7.09965-7.25953,6.73841-17.81034,11.29262-31.6561,13.659-24.20186,4.4827-42.24463.98299-54.11776-10.50227l2.30269-1.16727ZM118.62823,186.62355c-17.70776,5.12115-29.87009,3.33945-36.47525-5.3618-6.60751-8.70491-4.29307-17.34508,6.92647-25.92,17.1377-13.09782,50.79202-12.93703,100.96164.48758-29.89828,15.40364-53.70535,25.67255-71.41285,30.79422ZM519.74925,217.42874c-11.83606,9.04632-28.91804,12.55751-51.24553,10.53568-22.33428-2.0234-49.77092-7.90619-82.31421-17.64734,33.24595-13.11661,62.48765-20.99357,87.7418-23.6241,25.24044-2.63314,41.90557,1.37086,49.9903,12.02138,4.97132,6.54943,3.57997,12.78929-4.17235,18.71437Z" style="fill: #231f20;"/>
  <g id="uuid-d99c9285-b7a1-4ca8-b81b-9ec002d2efed" data-name="Localhost:coffee">
    <path d="M588.99389,307.1122v-11.63378h3.60158c4.24534,0,8.07548-.45713,11.49448-1.38491,3.41494-.92237,6.13742-2.8131,8.17151-5.67759,2.02868-2.86179,3.04572-7.15446,3.04572-12.88074v-134.61212c0-5.9075-1.01704-10.24887-3.04572-13.01869-2.03409-2.76982-4.75657-4.61186-8.17151-5.53964-3.419-.92237-7.24914-1.38491-11.49448-1.38491h-3.60158v-11.63378h80.60201v11.63378h-3.60022c-4.06411,0-7.80364.41655-11.21858,1.24696-3.419.8304-6.18881,2.58859-8.30946,5.26374-2.1247,2.67785-3.18502,6.78389-3.18502,12.32353v153.44906h54.56598c5.53964,0,10.0149-1.24696,13.43389-3.73817,3.41359-2.49392,5.95484-5.68029,7.617-9.55642,1.66081-3.87883,2.76982-7.75495,3.32297-11.63378l2.76982-20.77364h14.4036l-1.93941,59.55111h-148.46257Z" style="fill: #231f20;"/>
    <path d="M830.51994,309.88202c-19.94324,0-35.63978-6.37004-47.08692-19.11283-11.45255-12.74009-17.17342-32.12882-17.17342-58.1662,0-25.84804,5.4923-45.09882,16.48096-57.74965,10.98325-12.64541,27.18696-18.97218,48.60978-18.97218,19.94324,0,35.63572,6.32676,47.08692,18.97218,11.44714,12.65082,17.17342,31.90161,17.17342,57.74965,0,26.03738-5.49636,45.42611-16.48096,58.1662-10.98866,12.74279-27.19237,19.11283-48.60978,19.11283ZM831.0731,295.47842c9.23183,0,16.61891-2.35326,22.15855-7.0625,5.53964-4.70923,9.50908-11.77173,11.91103-21.1902,2.39654-9.41576,3.60022-20.95487,3.60022-34.62274,0-20.67627-2.86449-36.18888-8.58671-46.53242-5.72492-10.33813-15.51126-15.5099-29.36035-15.5099s-23.5908,5.17177-29.22105,15.5099c-5.63431,10.34354-8.44741,25.85615-8.44741,46.53242,0,20.68438,2.86043,36.33224,8.58536,46.94897,5.72222,10.62215,15.51126,15.92646,29.36035,15.92646Z" style="fill: #231f20;"/>
    <path d="M989.22868,309.88202c-12.18693,0-23.03629-2.58859-32.54537-7.75495-9.51179-5.16907-16.99084-13.33787-22.43445-24.51452-5.44902-11.16854-8.17151-25.80205-8.17151-43.90055,0-19.7566,2.72248-35.31519,8.17151-46.67037,5.44361-11.35788,12.83205-19.38873,22.15855-24.09797,9.32109-4.70923,19.80394-7.0625,31.43636-7.0625,7.7563,0,15.32597,1.01704,22.71306,3.04572,7.38303,2.03409,13.47717,5.12308,18.28108,9.27781,4.79985,4.15473,7.2018,9.46716,7.2018,15.92646,0,4.25211-.92643,7.66569-2.76982,10.24887-1.8488,2.58859-4.57128,4.43333-8.17151,5.53964-3.60022,1.10901-8.17151,1.66351-13.71115,1.66351,0-5.9075-.69245-11.26321-2.07736-16.06711-1.38491-4.7985-3.73817-8.62864-7.0625-11.49313-3.32432-2.86179-8.12823-4.29268-14.4036-4.29268-7.01922,0-13.15664,1.84745-18.41903,5.53964-5.26239,3.6949-9.3265,10.1569-12.18693,19.38873-2.86449,9.23453-4.29268,22.15855-4.29268,38.77747,0,13.11336,1.42819,24.006,4.29268,32.68332,2.86043,8.68003,7.33975,15.14204,13.43389,19.38873,6.09279,4.2494,14.12635,6.37004,24.09661,6.37004,5.72222,0,10.9846-.8304,15.78851-2.49392,4.79985-1.66081,9.00191-3.96809,12.60214-6.92455,3.60158-2.95105,6.41467-6.27537,8.44876-9.97027,1.47552,1.10901,2.63052,2.5399,3.46227,4.29268.8304,1.75819,1.24561,3.92481,1.24561,6.5107,0,4.2494-1.75683,8.40413-5.26239,12.46419-3.50961,4.06276-8.72466,7.43307-15.64921,10.10822-6.92455,2.67515-15.64921,4.01678-26.17533,4.01678Z" style="fill: #231f20;"/>
    <path d="M1103.89622,309.88202c-8.12823,0-15.46798-1.61753-22.0206-4.84718-6.55668-3.22965-11.67976-8.12282-15.37195-14.6795-3.69625-6.55398-5.53964-14.82015-5.53964-24.79042,0-14.77147,5.21505-25.6641,15.64921-32.68332,10.4301-7.01651,26.26595-10.89264,47.50213-11.63378l22.99031-.8304v-16.61891c0-6.64865-.5545-12.50746-1.66216-17.58997-1.10766-5.0744-3.50961-9.09117-7.2018-12.04763-3.69625-2.95105-9.3265-4.43063-16.89617-4.43063-7.01922,0-12.37222,1.29294-16.06441,3.87612-3.69625,2.58859-6.14148,6.14283-7.33975,10.66543-1.20368,4.5253-1.80011,9.74035-1.80011,15.64785-7.7563,0-13.62053-1.33622-17.58862-4.01678-3.9735-2.67244-5.95484-7.15176-5.95484-13.43254,0-6.46201,2.25859-11.63378,6.78525-15.5099,4.5226-3.87883,10.5694-6.69193,18.14313-8.45011,7.56831-1.75278,15.87777-2.62916,24.92837-2.62916,16.98678,0,29.67953,3.60022,38.08501,10.80067,8.40007,7.20315,12.60214,19.57537,12.60214,37.11666v71.73669c0,5.17177.5545,9.18855,1.66216,12.05034,1.10766,2.86449,2.95105,4.89317,5.53964,6.09414,2.58318,1.20098,5.9075,1.79876,9.97162,1.79876h.8304v11.63378h-37.39256l-4.43198-23.81936h-2.21531c-3.87748,5.17177-7.66434,9.74035-11.35653,13.70844-3.69625,3.9735-7.98893,7.11119-12.87939,9.41847-4.89452,2.30728-11.21858,3.46227-18.97353,3.46227ZM1110.26626,292.7086c7.56967,0,14.07901-1.56614,19.52804-4.70923,5.44361-3.13769,9.69437-7.617,12.74144-13.43254,3.04572-5.81554,4.56993-12.60214,4.56993-20.35709v-22.43716l-17.72657.8304c-10.52612.37328-18.7923,1.93941-24.79042,4.70923-6.00218,2.76982-10.29621,6.60537-12.87939,11.49583-2.58859,4.89317-3.87748,10.94133-3.87748,18.14177,0,5.72628.8304,10.48149,2.49257,14.26565,1.66216,3.78686,4.15473,6.64594,7.4777,8.58536,3.32432,1.93941,7.47905,2.90777,12.46419,2.90777Z" style="fill: #231f20;"/>
    <path d="M1206.65272,307.1122v-11.63378h3.60158c4.24534,0,8.07548-.45713,11.49448-1.38491,3.41494-.92237,6.13742-2.8131,8.17151-5.67759,2.02868-2.86179,3.04572-7.15446,3.04572-12.88074V127.07396c0-5.53964-1.06438-9.64568-3.18502-12.32624-2.1247-2.67515-4.89452-4.43063-8.30946-5.26103-3.419-.83311-7.15852-1.24696-11.21723-1.24696h-3.60158v-11.63378h52.35066v178.92923c0,5.72628,1.01163,10.01895,3.04572,12.88074,2.03003,2.86449,4.79985,4.75522,8.30946,5.67759,3.50555.92778,7.29241,1.38491,11.35653,1.38491h3.60158v11.63378h-78.66394Z" style="fill: #231f20;"/>
    <path d="M1299.44166,307.1122v-11.63378h3.60158c4.24534,0,8.07548-.45713,11.49448-1.38491,3.41494-.92237,6.13742-2.8131,8.17151-5.67759,2.02868-2.86179,3.04572-7.15446,3.04572-12.88074v-135.72113c0-5.53964-1.06438-9.64568-3.18502-12.32353-2.1247-2.67515-4.89452-4.43333-8.30946-5.26374-3.419-.8304-7.15852-1.24696-11.21723-1.24696h-3.60158v-11.63378h80.60201v11.63378h-3.60022c-4.06411,0-7.85098.46254-11.35653,1.38491-3.50961.92778-6.27943,2.76982-8.30946,5.53964-2.03409,2.76982-3.04707,7.11119-3.04707,13.01869v55.95089h90.01912v-55.95089c0-5.9075-1.01704-10.24887-3.04707-13.01869-2.03409-2.76982-4.75522-4.61186-8.17015-5.53964-3.419-.92237-7.24914-1.38491-11.49448-1.38491h-3.60158v-11.63378h80.60201v11.63378h-3.60022c-4.06411,0-7.85098.46254-11.35653,1.38491-3.50961.92778-6.27943,2.76982-8.30946,5.53964-2.03409,2.76982-3.04707,7.11119-3.04707,13.01869v135.99703c0,5.35841,1.06032,9.37519,3.18502,12.05034,2.12064,2.67785,4.89046,4.43063,8.30946,5.26103,3.41494.83311,7.15446,1.24696,11.21858,1.24696h3.60022v11.63378h-80.60201v-11.63378h3.60158c4.24534,0,8.07548-.45713,11.49448-1.38491,3.41494-.92237,6.13607-2.8131,8.17015-5.67759,2.03003-2.86179,3.04707-7.15446,3.04707-12.88074v-64.81214h-90.01912v64.81214c0,5.72628,1.01299,10.01895,3.04707,12.88074,2.03003,2.86449,4.79985,4.75522,8.30946,5.67759,3.50555.92778,7.29241,1.38491,11.35653,1.38491h3.60022v11.63378h-80.60201Z" style="fill: #231f20;"/>
    <path d="M1588.05735,309.88202c-19.94324,0-35.63978-6.37004-47.08692-19.11283-11.45255-12.74009-17.17342-32.12882-17.17342-58.1662,0-25.84804,5.4923-45.09882,16.48096-57.74965,10.98325-12.64541,27.18696-18.97218,48.60978-18.97218,19.94324,0,35.63572,6.32676,47.08692,18.97218,11.44714,12.65082,17.17342,31.90161,17.17342,57.74965,0,26.03738-5.49636,45.42611-16.48096,58.1662-10.98866,12.74279-27.19237,19.11283-48.60978,19.11283ZM1588.6105,295.47842c9.23183,0,16.61891-2.35326,22.15855-7.0625,5.53964-4.70923,9.50908-11.77173,11.91103-21.1902,2.39654-9.41576,3.60022-20.95487,3.60022-34.62274,0-20.67627-2.86449-36.18888-8.58671-46.53242-5.72492-10.33813-15.51126-15.5099-29.36035-15.5099s-23.5908,5.17177-29.22105,15.5099c-5.63431,10.34354-8.44741,25.85615-8.44741,46.53242,0,20.68438,2.86043,36.33224,8.58536,46.94897,5.72222,10.62215,15.51126,15.92646,29.36035,15.92646Z" style="fill: #231f20;"/>
    <path d="M1726.54695,309.88202c-9.23589,0-17.26809-1.10901-24.09797-3.32432-6.83258-2.21531-12.14365-5.49095-15.92646-9.83232-3.78686-4.33596-5.67759-9.73765-5.67759-16.20236,0-4.98784,1.01299-8.86396,3.04707-11.63378,2.03003-2.76982,4.38329-4.70923,7.0625-5.81824,2.67515-1.1063,5.12444-1.66081,7.33975-1.66081,0,9.6024,2.16933,17.86587,6.50935,24.79042,4.33731,6.92455,12.1396,10.38682,23.40551,10.38682,9.78498,0,17.31137-2.35597,22.57375-7.0625,5.26239-4.70923,7.89425-10.75469,7.89425-18.14448,0-4.61186-.96971-8.39872-2.90912-11.35518-1.93806-2.95105-5.35706-5.85882-10.24752-8.72601-4.89452-2.85908-11.86776-6.23209-20.91295-10.10822-9.41711-4.2467-17.2194-8.35274-23.40416-12.32624-6.18881-3.96809-10.80202-8.58536-13.8491-13.8491-3.04707-5.26374-4.56993-11.8637-4.56993-19.80529,0-12.55345,4.75116-22.20183,14.2643-28.94245,9.50773-6.74061,22.11122-10.11092,37.80776-10.11092,8.86396,0,16.29433,1.15499,22.2965,3.46227,5.99947,2.30999,10.52612,5.40169,13.5732,9.27781,3.04572,3.87883,4.56993,8.12823,4.56993,12.74279,0,4.98513-1.7095,9.00191-5.12444,12.04763-3.419,3.04842-8.35679,4.57128-14.8188,4.57128,0-9.23183-1.93806-16.43228-5.81689-21.60405-3.87748-5.16907-9.87965-7.75766-18.00382-7.75766-9.41711,0-16.15908,2.07736-20.21914,6.23209-4.06411,4.15473-6.09414,9.46716-6.09414,15.92646,0,4.61997,1.15229,8.4961,3.46227,11.63378,2.30728,3.1431,5.99947,6.05086,11.07928,8.72601,5.0771,2.67785,11.67706,5.67759,19.80529,9.00191,9.78498,4.06276,17.72657,8.12823,23.81936,12.18558,6.09414,4.06547,10.5694,8.7747,13.43389,14.1277,2.86043,5.35841,4.29403,11.90968,4.29403,19.66463,0,14.4036-4.98649,25.25296-14.9581,32.54537-9.97027,7.29782-23.1756,10.94133-39.60787,10.94133Z" style="fill: #231f20;"/>
    <path d="M1859.77281,309.88202c-14.03573,0-24.23592-3.18637-30.60596-9.55642-6.3714-6.37004-9.55642-17.4926-9.55642-33.37578v-92.51304h-21.0509v-11.07928c3.32432,0,7.01516-.69245,11.07928-2.07736,4.06006-1.38491,7.56967-3.6435,10.52612-6.78389,3.13769-3.32432,5.72087-7.38438,7.75495-12.18829,2.03003-4.7985,3.69219-10.706,4.98513-17.72792h12.74144v34.07094h36.2849v15.7858h-36.2849v93.34344c0,9.41847,1.93941,16.34301,5.81689,20.77364,3.87748,4.43333,8.95458,6.64865,15.234,6.64865,3.32432,0,6.37004-.18123,9.13986-.5545,2.76982-.36787,5.6316-.8304,8.58671-1.38491v12.18829c-2.40195,1.1063-6.00218,2.12064-10.80202,3.04572-4.8039.92237-9.41711,1.38491-13.8491,1.38491Z" style="fill: #231f20;"/>
    <path d="M2002.69169,194.93453c-4.8039,0-8.9113-1.38491-12.32488-4.15473-3.419-2.76982-5.12444-7.66028-5.12444-14.6795,0-7.20315,1.70544-12.1396,5.12444-14.82015,3.41359-2.67244,7.52098-4.01407,12.32488-4.01407,4.79985,0,8.90724,1.34163,12.32624,4.01407,3.41494,2.68056,5.12444,7.617,5.12444,14.82015,0,7.01922-1.7095,11.90968-5.12444,14.6795-3.419,2.76982-7.52639,4.15473-12.32624,4.15473ZM2002.69169,309.05162c-4.8039,0-8.9113-1.38491-12.32488-4.15473-3.419-2.76982-5.12444-7.66028-5.12444-14.6795,0-7.20315,1.70544-12.1396,5.12444-14.82015,3.41359-2.67515,7.52098-4.01678,12.32488-4.01678,4.79985,0,8.90724,1.34163,12.32624,4.01678,3.41494,2.68056,5.12444,7.617,5.12444,14.82015,0,7.01922-1.7095,11.90968-5.12444,14.6795-3.419,2.76982-7.52639,4.15473-12.32624,4.15473Z" style="fill: #231f20;"/>
    <path d="M2214.02699,309.88202c-18.28108,0-33.70172-4.2467-46.25652-12.74009-12.55886-8.49339-22.01925-20.35979-28.39065-35.5938-6.37004-15.234-9.55506-33.09988-9.55506-53.59492,0-19.94324,3.36625-37.53051,10.10957-52.76451,6.73791-15.234,16.70953-27.14639,29.9135-35.73175,13.19992-8.58536,29.4983-12.88074,48.88704-12.88074,12.55615,0,22.99031,1.34163,31.29977,4.01678,8.30946,2.68056,14.49421,6.37004,18.55698,11.07928,4.06006,4.70923,6.09414,10.01895,6.09414,15.92646,0,5.91291-2.31134,10.62215-6.92455,14.1277-4.61727,3.50826-10.34354,5.26103-17.17342,5.26103,0-5.72087-1.01704-11.30919-3.04572-16.75686-2.03409-5.44497-5.40169-9.97027-10.11092-13.5732-4.70788-3.60022-11.12661-5.39898-19.24943-5.39898-13.8491,0-25.0244,3.37031-33.51508,10.10822-8.4961,6.74332-14.63622,16.57564-18.41903,29.49966-3.78686,12.92672-5.67894,28.62327-5.67894,47.08692,0,16.43769,1.98269,30.97924,5.95619,43.62465,3.96809,12.65082,10.20018,22.48314,18.69628,29.49695,8.49069,7.02192,19.47935,10.52748,32.96058,10.52748,9.04519,0,16.70953-1.10901,22.98896-3.32432,6.27537-2.21531,11.58645-5.12579,15.92646-8.72601,4.33731-3.60022,8.07548-7.43036,11.21858-11.49313,1.47552.92508,2.72113,2.2613,3.73817,4.01407,1.01299,1.75819,1.52421,4.01678,1.52421,6.7866,0,3.51096-1.20368,7.0625-3.60158,10.66543-2.40195,3.60022-6.00218,6.92455-10.80202,9.97027-4.8039,3.04572-10.93997,5.53964-18.41903,7.47905-7.47905,1.93941-16.389,2.90777-26.72848,2.90777Z" style="fill: #231f20;"/>
    <path d="M2363.59722,309.88202c-19.94324,0-35.63978-6.37004-47.08692-19.11283-11.45255-12.74009-17.17342-32.12882-17.17342-58.1662,0-25.84804,5.4923-45.09882,16.48096-57.74965,10.98325-12.64541,27.18696-18.97218,48.60978-18.97218,19.94324,0,35.63572,6.32676,47.08692,18.97218,11.44714,12.65082,17.17342,31.90161,17.17342,57.74965,0,26.03738-5.49636,45.42611-16.48096,58.1662-10.98866,12.74279-27.19237,19.11283-48.60978,19.11283ZM2364.15037,295.47842c9.23183,0,16.61891-2.35326,22.15855-7.0625,5.53964-4.70923,9.50908-11.77173,11.91103-21.1902,2.39654-9.41576,3.60022-20.95487,3.60022-34.62274,0-20.67627-2.86449-36.18888-8.58671-46.53242-5.72492-10.33813-15.51126-15.5099-29.36035-15.5099s-23.5908,5.17177-29.22105,15.5099c-5.63431,10.34354-8.44741,25.85615-8.44741,46.53242,0,20.68438,2.86043,36.33224,8.58536,46.94897,5.72222,10.62215,15.51126,15.92646,29.36035,15.92646Z" style="fill: #231f20;"/>
    <path d="M2451.39967,307.1122v-11.63378h3.60022c4.24534,0,8.07548-.45713,11.49448-1.38491,3.41494-.92237,6.13742-2.8131,8.17151-5.67759,2.03003-2.86179,3.04707-7.15446,3.04707-12.88074v-103.86822h-25.20562v-13.01599h25.20562v-13.8491c0-16.43498,4.38329-29.03712,13.15664-37.80911,8.76794-8.76929,20.72495-13.15664,35.86835-13.15664,9.5997,0,17.2167.8304,22.85101,2.49392,5.63025,1.66081,9.69437,3.92481,12.18693,6.78389,2.49392,2.8672,3.73953,6.23209,3.73953,10.11092,0,3.32432-.96971,6.14013-2.90777,8.44741-1.93941,2.31269-4.61862,4.06547-8.0322,5.26374-3.419,1.20368-7.3411,1.79876-11.77173,1.79876,0-3.68949-.5545-7.24373-1.66216-10.66272-1.10766-3.41359-2.95646-6.1834-5.53964-8.30946-2.58859-2.12064-6.27943-3.18637-11.07928-3.18637-7.94159,0-13.39061,3.04842-16.34166,9.14257-2.95646,6.09144-4.43198,14.9554-4.43198,26.58918v16.34301h39.05472v13.01599h-39.05472v103.86822c0,5.72628,1.01299,10.01895,3.04707,12.88074,2.02868,2.86449,4.7985,4.75522,8.30946,5.67759,3.50555.92778,7.29241,1.38491,11.35518,1.38491h10.52612v11.63378h-85.58714Z" style="fill: #231f20;"/>
    <path d="M2553.60302,307.1122v-11.63378h3.60022c4.24534,0,8.07548-.45713,11.49448-1.38491,3.41494-.92237,6.13742-2.8131,8.17151-5.67759,2.03003-2.86179,3.04707-7.15446,3.04707-12.88074v-103.86822h-25.20562v-13.01599h25.20562v-13.8491c0-16.43498,4.38329-29.03712,13.15664-37.80911,8.76794-8.76929,20.72495-13.15664,35.86835-13.15664,9.5997,0,17.2167.8304,22.85101,2.49392,5.63025,1.66081,9.69437,3.92481,12.18693,6.78389,2.49392,2.8672,3.73953,6.23209,3.73953,10.11092,0,3.32432-.96971,6.14013-2.90777,8.44741-1.93941,2.31269-4.61862,4.06547-8.0322,5.26374-3.419,1.20368-7.3411,1.79876-11.77173,1.79876,0-3.68949-.5545-7.24373-1.66216-10.66272-1.10766-3.41359-2.95646-6.1834-5.53964-8.30946-2.58859-2.12064-6.27943-3.18637-11.07928-3.18637-7.94159,0-13.39061,3.04842-16.34166,9.14257-2.95646,6.09144-4.43198,14.9554-4.43198,26.58918v16.34301h39.05472v13.01599h-39.05472v103.86822c0,5.72628,1.01299,10.01895,3.04707,12.88074,2.02868,2.86449,4.7985,4.75522,8.30946,5.67759,3.50555.92778,7.29241,1.38491,11.35518,1.38491h10.52612v11.63378h-85.58714Z" style="fill: #231f20;"/>
    <path d="M2727.82166,309.88202c-20.12988,0-35.8697-6.64865-47.22623-19.94324-11.35653-13.29459-17.03412-31.94218-17.03412-55.95089,0-25.84804,5.353-45.32874,16.06441-58.4421,10.70735-13.10795,25.85074-19.66463,45.42611-19.66463,17.9078,0,31.99087,5.53964,42.23974,16.61891,10.24752,11.07928,15.37195,27.60622,15.37195,49.57814v12.74279h-92.23443c.36787,20.12717,4.01543,34.76069,10.93997,43.90055,6.92455,9.13986,17.03412,13.71115,30.33006,13.71115,9.59834,0,17.76985-1.98269,24.51317-5.95619,6.73791-3.96809,11.77173-8.44741,15.0947-13.43254,1.29024.5545,2.49257,1.66081,3.60158,3.32432,1.10766,1.66081,1.66081,3.6949,1.66081,6.09144,0,3.6976-1.75683,7.66569-5.26239,11.91239-3.50961,4.2494-8.86261,7.8929-16.06441,10.93862-7.2018,3.04842-16.34166,4.57128-27.42094,4.57128ZM2754.6881,219.8629c0-14.77147-2.26265-26.63246-6.78525-35.59109-4.528-8.95593-12.32624-13.43525-23.40551-13.43525-10.1569,0-18.05116,4.20342-23.68141,12.60214-5.63566,8.40683-8.9113,20.54643-9.83367,36.4242h63.70584Z" style="fill: #231f20;"/>
    <path d="M2876.00428,309.88202c-20.12988,0-35.8697-6.64865-47.22623-19.94324-11.35653-13.29459-17.03412-31.94218-17.03412-55.95089,0-25.84804,5.353-45.32874,16.06441-58.4421,10.70735-13.10795,25.85074-19.66463,45.42611-19.66463,17.9078,0,31.99087,5.53964,42.23974,16.61891,10.24752,11.07928,15.37195,27.60622,15.37195,49.57814v12.74279h-92.23443c.36787,20.12717,4.01543,34.76069,10.93997,43.90055,6.92455,9.13986,17.03412,13.71115,30.33006,13.71115,9.59834,0,17.76985-1.98269,24.51317-5.95619,6.73791-3.96809,11.77173-8.44741,15.0947-13.43254,1.29024.5545,2.49257,1.66081,3.60158,3.32432,1.10766,1.66081,1.66081,3.6949,1.66081,6.09144,0,3.6976-1.75683,7.66569-5.26239,11.91239-3.50961,4.2494-8.86261,7.8929-16.06441,10.93862-7.2018,3.04842-16.34166,4.57128-27.42094,4.57128ZM2902.87071,219.8629c0-14.77147-2.26265-26.63246-6.78525-35.59109-4.528-8.95593-12.32624-13.43525-23.40551-13.43525-10.1569,0-18.05116,4.20342-23.68141,12.60214-5.63566,8.40683-8.9113,20.54643-9.83367,36.4242h63.70584Z" style="fill: #231f20;"/>
  </g>
</svg>